if (_typeface_js && _typeface_js.loadFace) _typeface_js.loadFace({"glyphs":{"0":{"ha":830,"x_min":18,"x_max":813,"o":"m 21 486 q 114 827 18 686 q 243 949 168 905 q 414 996 324 996 q 586 949 505 996 q 716 827 663 905 q 810 486 813 686 q 709 159 806 294 q 581 44 654 85 q 414 1 501 1 q 249 45 327 1 q 121 160 174 87 q 21 486 24 294 m 246 267 q 252 196 246 222 q 284 133 260 161 q 341 91 307 106 q 410 75 374 77 q 485 83 452 73 q 549 122 522 94 q 585 187 575 150 q 590 262 591 214 l 582 721 q 575 798 581 773 q 545 869 566 840 q 486 918 522 899 q 410 935 452 935 q 337 917 371 935 q 280 868 303 899 q 251 799 258 838 q 246 724 246 774 l 246 267 z "},"1":{"ha":416,"x_min":56,"x_max":340,"o":"m 56 835 l 57 885 l 340 1004 l 340 3 l 115 3 l 115 718 q 104 787 115 762 q 56 835 90 821 z "},"2":{"ha":790,"x_min":9,"x_max":770,"o":"m 11 734 q 52 852 12 794 q 143 938 86 903 q 383 1008 248 1004 q 593 958 503 1011 q 675 887 640 930 q 724 791 710 843 q 726 668 740 732 q 673 555 713 610 q 479 401 613 471 q 368 348 440 381 q 266 299 295 314 q 97 201 178 255 l 606 201 q 680 210 654 201 q 742 251 718 222 l 770 237 l 658 2 l 21 0 l 21 200 q 227 392 104 306 q 283 430 244 404 q 351 477 323 456 q 404 519 380 498 q 499 646 473 581 q 516 748 520 699 q 482 846 512 801 q 405 915 454 890 q 303 936 357 939 q 188 894 239 932 q 115 795 136 854 q 197 777 161 804 q 237 702 234 749 q 210 625 241 656 q 133 592 178 592 q 43 637 79 592 q 11 734 9 678 z "},"3":{"ha":722,"x_min":39,"x_max":741,"o":"m 41 207 q 73 304 39 264 q 164 349 109 349 q 239 316 208 349 q 268 239 271 283 q 229 164 264 192 q 146 146 192 136 q 225 60 170 88 q 342 41 281 31 q 467 119 416 54 q 518 257 514 178 q 506 347 521 303 q 460 423 491 391 q 345 480 412 471 q 208 444 269 489 l 163 476 l 561 804 l 62 804 l 98 993 l 671 993 l 648 806 l 453 646 q 640 571 562 644 q 727 403 712 503 q 697 215 741 307 q 543 53 648 114 q 326 -6 442 -6 q 140 46 219 -6 q 72 115 96 76 q 41 207 43 159 z "},"4":{"ha":866,"x_min":21,"x_max":846,"o":"m 21 311 l 21 424 l 566 1007 l 681 1007 l 681 467 q 723 474 701 469 q 819 524 778 488 l 846 509 l 792 311 l 681 311 l 681 -28 l 456 -28 l 456 311 l 21 311 m 142 464 l 456 464 l 456 810 l 142 464 z "},"5":{"ha":712,"x_min":19,"x_max":692,"o":"m 21 165 q 52 262 19 222 q 143 307 89 307 q 219 275 188 307 q 248 197 251 242 q 208 123 244 151 q 125 104 171 94 q 205 18 149 47 q 321 0 260 -10 q 446 77 396 14 q 497 215 493 136 q 484 305 499 261 q 439 381 469 349 q 332 448 396 427 q 205 469 277 467 q 98 464 156 471 l 193 1003 l 533 1003 q 608 1013 582 1003 q 663 1062 645 1028 l 692 1048 l 576 802 l 202 802 l 177 669 q 289 666 237 671 q 455 626 382 656 q 596 530 539 591 q 663 418 641 481 q 681 290 686 355 q 644 159 676 222 q 558 50 611 96 q 306 -48 449 -45 q 119 3 199 -50 q 51 73 77 33 q 21 165 23 117 z "},"6":{"ha":797,"x_min":11,"x_max":781,"o":"m 15 454 q 68 700 19 578 q 169 867 109 801 q 330 975 238 942 q 570 988 448 1015 q 643 962 608 980 q 703 915 679 944 q 732 844 729 882 q 711 772 735 804 q 675 743 694 752 q 629 735 651 733 q 574 758 599 737 q 545 809 551 779 q 551 867 538 840 q 592 910 565 895 q 443 931 523 953 q 345 871 388 916 q 281 774 304 831 q 253 629 253 705 q 380 672 311 663 q 515 665 450 682 q 637 608 581 649 q 728 509 693 567 q 777 351 773 437 q 744 190 781 264 q 595 39 695 92 q 387 -1 498 -11 q 200 63 286 7 q 68 210 117 118 q 15 454 11 319 m 236 315 q 273 170 239 228 q 323 114 294 136 q 392 86 353 92 q 473 99 433 81 q 536 151 508 115 q 591 303 581 209 q 560 488 602 413 q 496 557 536 532 q 406 581 454 584 q 325 550 363 578 q 269 484 291 526 q 236 315 233 414 z "},"7":{"ha":760,"x_min":19,"x_max":739,"o":"m 19 725 l 89 996 l 739 996 q 726 967 734 986 q 713 939 717 948 q 305 -1 505 473 l 222 0 l 559 770 l 164 770 q 95 760 120 770 q 47 711 60 745 l 19 725 z "},"8":{"ha":814,"x_min":19,"x_max":802,"o":"m 21 271 q 38 368 19 320 q 92 453 58 416 q 245 549 151 515 q 180 578 208 561 q 96 663 123 613 q 69 778 64 718 q 109 880 74 832 q 191 951 140 923 q 405 1000 277 998 q 619 961 533 1003 q 705 894 672 935 q 750 795 742 848 q 729 675 760 734 q 646 586 701 622 q 583 554 615 566 q 739 450 681 522 q 788 353 774 406 q 792 244 802 299 q 739 134 780 184 q 644 56 701 87 q 404 0 543 1 q 154 60 256 -1 q 60 149 95 95 q 21 271 23 206 m 230 323 q 267 171 224 237 q 322 115 289 136 q 397 90 357 92 q 475 106 439 88 q 538 159 513 125 q 585 312 586 221 q 533 463 583 401 q 469 511 507 494 q 412 525 442 524 l 410 525 l 399 525 q 394 525 397 525 q 390 524 391 524 q 324 501 355 520 q 274 454 295 483 q 230 323 234 398 m 262 780 q 288 652 254 708 q 334 605 305 625 q 396 585 361 587 q 465 601 431 583 q 516 649 496 618 q 545 786 555 709 q 502 886 536 846 q 458 920 484 908 q 405 933 433 933 q 349 920 376 933 q 304 885 322 907 q 262 780 269 844 z "},"9":{"ha":806,"x_min":23,"x_max":784,"o":"m 74 488 q 28 639 34 557 q 54 794 23 721 q 197 956 98 898 q 408 1004 295 1012 q 599 936 511 996 q 731 782 683 878 q 783 545 784 677 q 737 307 782 425 q 639 138 699 206 q 478 28 571 62 q 238 12 363 -14 q 165 37 196 21 q 105 83 129 55 q 75 153 79 115 q 96 226 71 194 q 131 255 111 245 q 176 264 152 265 q 231 242 208 262 q 262 191 256 222 q 256 133 268 161 q 216 90 243 104 q 295 68 252 71 q 376 80 338 65 q 467 144 427 99 q 523 239 500 182 q 548 353 544 293 q 419 314 488 321 q 284 326 350 307 q 163 387 218 344 q 74 488 108 429 m 209 670 q 258 496 210 565 q 326 435 286 455 q 415 421 368 414 q 490 455 456 427 q 539 522 521 481 q 564 684 570 590 q 518 835 557 774 q 463 891 495 871 q 389 915 429 913 q 307 894 347 917 q 248 833 272 873 q 209 670 208 769 z "}," ":{"ha":208,"x_min":0,"x_max":0,"o":""},"!":{"ha":296,"x_min":21,"x_max":275,"o":"m 21 922 l 21 942 l 212 1065 l 239 1065 l 179 294 l 140 294 l 76 819 q 74 843 75 827 q 71 866 73 859 q 66 889 68 882 q 53 909 62 900 q 21 922 40 922 m 23 112 l 148 237 l 275 110 l 150 -15 l 23 112 z "},"\"":{"ha":550,"x_min":21,"x_max":530,"o":"m 21 922 l 21 942 l 212 1065 l 239 1065 l 179 552 l 140 552 l 102 789 q 88 854 95 834 q 75 884 82 873 q 53 909 65 901 q 21 922 39 918 m 313 922 l 313 942 l 504 1065 l 530 1065 l 471 552 l 432 552 l 393 789 q 380 854 386 838 q 367 884 375 871 q 345 909 357 901 q 313 922 331 918 z "},"#":{"ha":968,"x_min":109,"x_max":854,"o":"m 109 492 l 271 492 l 271 635 l 113 635 l 109 783 l 271 783 l 271 939 l 420 939 l 420 783 l 563 783 l 563 930 l 711 930 l 711 783 l 854 783 l 854 635 l 711 635 l 711 492 l 854 492 l 854 343 l 711 343 l 711 191 l 563 191 l 563 343 l 420 343 l 420 191 l 271 191 l 271 343 l 113 343 l 109 492 m 420 492 l 563 492 l 563 635 l 420 635 l 420 492 z "},"$":{"ha":907,"x_min":7,"x_max":887,"o":"m 21 -41 q 39 125 7 43 q 114 246 62 181 q 211 351 146 287 q 273 409 231 371 l 285 420 l 91 547 l 91 827 l 309 990 q 379 1033 353 1023 q 386 1035 381 1034 q 392 1037 390 1036 l 392 1119 l 431 1119 l 431 1043 q 460 1042 444 1044 q 503 1031 481 1039 l 503 1119 l 542 1119 l 542 1017 q 615 986 598 991 q 736 980 682 964 q 830 1055 800 998 q 848 1112 844 1082 l 848 1113 l 867 1112 l 869 1112 l 887 1112 l 886 1093 q 882 1035 886 1058 q 785 827 863 927 q 654 698 747 779 q 758 653 708 680 q 861 583 810 625 l 861 235 l 542 34 l 542 -77 l 503 -77 l 503 9 l 480 -5 q 431 40 457 20 l 431 -77 l 392 -77 l 392 66 q 321 98 356 87 q 224 111 273 113 q 107 94 151 109 q 79 80 90 89 q 64 63 70 73 q 65 -21 57 19 l 21 -41 m 138 217 q 262 271 194 257 q 392 273 327 283 l 392 463 l 298 380 q 238 323 268 353 q 145 225 180 267 q 142 221 144 224 q 138 217 140 218 m 273 650 l 392 568 l 392 854 q 299 907 339 879 l 273 895 l 273 650 m 431 265 q 484 249 449 261 q 503 241 490 247 l 503 562 l 431 498 l 431 265 m 431 550 l 503 614 l 503 818 q 454 831 475 823 q 431 839 446 833 l 431 550 m 542 224 q 652 154 595 199 l 679 167 l 679 486 l 542 553 l 542 224 m 542 650 l 596 698 q 628 726 604 705 q 664 757 652 747 q 693 785 675 768 q 727 819 712 803 q 754 852 741 835 q 756 854 755 852 q 758 857 757 856 q 676 819 719 831 q 542 811 616 802 l 542 650 z "},"%":{"ha":1109,"x_min":1,"x_max":1123,"o":"m 3 743 q 77 921 5 847 q 164 980 113 958 q 273 1000 215 1002 q 374 978 325 1000 q 457 922 422 957 q 532 754 524 854 q 471 564 539 644 q 385 498 436 522 q 273 471 332 472 q 161 494 215 471 q 72 557 110 515 q 3 743 1 634 m 162 671 q 165 623 162 639 q 180 577 170 594 q 217 542 194 555 q 269 526 243 527 q 323 538 296 526 q 361 572 347 551 q 379 618 375 592 q 382 667 382 635 l 382 795 q 365 899 382 867 q 327 939 351 925 q 269 955 299 956 q 214 937 239 954 q 178 897 192 923 q 162 797 162 866 l 162 671 m 229 9 l 779 1000 l 872 1000 l 326 9 l 229 9 m 586 284 q 660 463 588 389 q 747 522 696 500 q 856 542 798 543 q 957 520 908 541 q 1040 463 1006 498 q 1115 296 1107 395 q 1055 105 1123 185 q 968 39 1019 63 q 856 13 916 14 q 744 35 798 12 q 655 98 693 57 q 586 284 584 176 m 745 212 q 748 164 745 180 q 764 119 753 136 q 800 83 778 95 q 852 68 825 69 q 906 80 880 67 q 945 114 930 92 q 962 160 958 134 q 965 208 965 176 l 965 336 q 948 440 965 408 q 910 481 934 467 q 852 496 884 497 q 798 479 822 494 q 762 439 774 464 q 745 338 745 408 l 745 212 z "},"&":{"ha":1025,"x_min":2,"x_max":1029,"o":"m 12 241 q 22 370 2 307 q 91 481 42 431 q 193 564 119 511 q 213 578 199 568 q 234 594 227 589 l 163 684 q 114 774 123 734 q 129 874 102 825 q 197 951 150 913 q 283 1009 230 977 q 400 1054 351 1050 q 486 1033 448 1057 q 540 963 525 1007 q 547 925 545 946 q 528 839 549 884 q 483 764 512 803 q 405 672 450 720 q 524 513 473 580 l 677 663 l 976 663 l 1012 696 l 1029 676 l 837 487 l 836 487 q 711 279 767 359 q 883 79 779 197 q 953 0 929 26 l 703 0 l 594 137 q 541 87 564 107 q 414 9 479 35 q 268 -11 342 -20 q 150 31 205 -4 q 60 119 97 64 q 12 241 22 176 m 180 336 q 195 245 176 291 q 252 174 214 203 q 381 131 307 131 q 514 168 446 131 q 551 192 536 181 l 281 534 q 251 496 260 509 q 180 336 186 407 m 265 891 q 274 859 266 876 q 292 829 280 846 q 374 715 334 768 q 380 723 376 718 q 388 732 385 729 q 430 816 420 774 q 424 908 442 867 q 368 962 406 949 q 329 966 348 969 q 293 951 307 963 q 272 925 279 941 q 265 891 264 908 m 545 487 q 677 321 604 412 q 708 365 680 326 q 786 487 754 433 l 545 487 z "},"'":{"ha":258,"x_min":21,"x_max":239,"o":"m 21 922 l 21 942 l 212 1065 l 239 1065 l 179 552 l 140 552 l 102 789 q 88 854 95 834 q 75 884 82 873 q 53 909 65 901 q 21 922 39 918 z "},"(":{"ha":443,"x_min":17,"x_max":422,"o":"m 17 525 q 123 172 17 331 q 406 -63 231 11 l 420 -40 q 250 155 315 40 q 157 540 153 327 q 252 895 161 735 q 422 1089 317 1008 l 408 1112 q 123 878 231 1038 q 17 525 17 718 z "},")":{"ha":443,"x_min":17,"x_max":422,"o":"m 17 1089 l 31 1112 q 315 878 208 1038 q 422 525 422 718 q 316 172 422 331 q 33 -63 208 11 l 18 -40 q 189 155 123 40 q 281 540 286 327 q 186 895 277 735 q 17 1089 122 1008 z "},"*":{"ha":550,"x_min":29,"x_max":527,"o":"m 29 892 l 33 905 l 257 802 l 240 907 q 233 939 235 934 q 227 954 232 945 q 216 966 222 962 q 199 973 208 972 l 199 983 l 295 1044 l 309 1044 l 280 800 l 374 849 q 404 865 398 861 q 416 876 410 869 q 424 890 422 884 q 425 907 427 897 l 435 911 l 523 839 l 527 826 l 286 778 l 361 703 q 371 693 363 701 q 385 680 380 684 q 399 672 391 675 q 416 669 408 669 q 433 673 425 669 l 438 665 l 397 559 l 387 551 l 266 766 l 218 671 q 212 658 218 669 q 204 641 206 647 q 201 625 202 635 q 203 608 199 616 q 212 593 206 599 l 206 585 l 92 592 l 81 600 l 248 781 l 143 797 q 111 800 116 800 q 94 799 100 800 q 79 792 85 797 q 68 779 73 787 l 58 782 l 29 892 m 264 784 l 267 782 l 271 784 l 269 788 l 265 788 l 264 784 z "},"+":{"ha":797,"x_min":47,"x_max":764,"o":"m 47 435 l 182 583 l 332 583 l 332 750 l 481 885 l 481 583 l 764 583 l 629 435 l 481 435 l 481 275 l 332 140 l 332 435 l 47 435 z "},",":{"ha":328,"x_min":21,"x_max":314,"o":"m 21 115 l 209 238 q 284 163 257 208 q 312 55 314 112 q 286 -34 310 9 q 231 -109 264 -74 q 102 -214 178 -163 l 92 -199 q 149 -152 125 -182 q 182 -85 173 -121 q 177 29 195 -26 q 150 80 167 59 q 102 110 129 106 q 78 108 92 111 q 56 97 71 106 l 39 85 l 21 115 z "},"-":{"ha":686,"x_min":21,"x_max":667,"o":"m 21 445 l 191 635 l 614 635 l 646 668 l 667 648 l 496 458 l 75 458 l 41 425 l 21 445 z "},".":{"ha":293,"x_min":21,"x_max":273,"o":"m 21 112 l 146 237 l 273 110 l 148 -15 l 21 112 z "},"/":{"ha":579,"x_min":-9,"x_max":600,"o":"m -9 -60 l 150 -60 l 600 1100 l 439 1100 l -9 -60 z "},":":{"ha":293,"x_min":21,"x_max":273,"o":"m 21 112 l 146 237 l 273 110 l 148 -15 l 21 112 m 21 584 l 146 709 l 273 582 l 148 457 l 21 584 z "},";":{"ha":328,"x_min":5,"x_max":314,"o":"m 5 500 l 130 625 l 257 498 l 132 374 l 5 500 m 21 115 l 209 238 q 284 163 257 208 q 312 55 314 112 q 286 -34 310 9 q 231 -109 264 -74 q 102 -214 178 -163 l 92 -199 q 149 -152 125 -182 q 182 -85 173 -121 q 177 29 195 -26 q 150 80 167 59 q 102 110 129 106 q 78 108 92 111 q 56 97 71 106 l 39 85 l 21 115 z "},"<":{"ha":590,"x_min":35,"x_max":543,"o":"m 35 376 l 430 162 l 406 111 l 434 97 l 543 306 l 120 526 l 120 537 l 543 757 l 434 966 l 406 952 l 430 901 l 35 686 q 62 532 62 610 q 35 376 62 452 z "},"=":{"ha":968,"x_min":92,"x_max":892,"o":"m 92 310 l 227 458 l 892 458 l 758 310 l 92 310 m 92 602 l 227 750 l 892 750 l 758 602 l 92 602 z "},">":{"ha":590,"x_min":35,"x_max":543,"o":"m 35 306 l 458 526 l 458 537 l 35 757 l 144 966 l 172 952 l 149 901 l 543 686 q 517 532 517 612 q 543 376 517 450 l 149 162 l 172 111 l 144 97 l 35 306 z "},"?":{"ha":443,"x_min":-1,"x_max":425,"o":"m -1 112 l 123 237 l 250 110 l 125 -15 l -1 112 m 0 890 l 110 1099 l 138 1084 l 114 1034 l 425 819 q 371 664 385 747 q 375 493 357 578 l 252 443 q 200 419 212 426 q 157 383 175 404 q 125 278 116 337 l 89 277 l 61 539 l 340 669 l 0 890 z "},"@":{"ha":1048,"x_min":-34,"x_max":1088,"o":"m 11 131 q -12 182 11 131 q -34 347 -34 234 q 11 564 -34 460 q 130 742 55 667 q 309 861 205 817 q 527 905 413 905 q 745 861 641 905 q 924 742 849 817 q 1044 564 1000 667 q 1088 347 1088 460 q 1044 131 1088 234 q 924 -47 1000 27 q 745 -166 849 -122 q 527 -211 641 -211 q 309 -167 413 -211 q 130 -48 205 -123 q 11 131 55 27 m 36 553 q 15 504 36 553 q -6 347 -6 455 q 36 141 -6 239 q 150 -28 79 43 q 320 -141 221 -99 q 527 -183 418 -183 q 734 -141 635 -183 q 904 -28 833 -99 q 1018 141 975 43 q 1060 347 1060 239 q 1018 553 1060 455 q 904 723 975 652 q 734 836 833 793 q 527 878 635 878 q 320 836 418 878 q 150 723 221 793 q 36 553 79 652 m 196 372 q 260 510 210 444 q 376 610 304 568 q 593 677 475 669 l 717 618 l 769 661 l 793 630 l 734 583 l 734 221 l 802 155 l 861 195 l 868 168 l 675 35 l 568 141 l 422 35 q 273 115 336 52 q 203 233 223 165 q 196 372 182 301 m 363 366 q 402 232 370 284 q 450 181 420 202 q 515 156 479 160 q 562 159 541 154 l 562 639 q 433 589 486 641 q 374 485 393 549 q 363 366 359 431 z "},"A":{"ha":1034,"x_min":21,"x_max":1014,"o":"m 21 -14 q 142 155 58 87 q 201 194 168 176 l 353 447 q 264 511 305 469 q 190 645 210 568 q 180 721 180 683 q 190 796 180 758 q 258 930 208 871 q 376 1023 307 988 q 523 1065 446 1058 q 561 1066 542 1067 q 671 1052 616 1066 q 808 990 746 1032 l 893 1072 l 924 1047 l 899 1021 q 872 960 880 994 q 867 895 867 935 l 867 851 l 867 384 l 867 349 q 873 239 867 266 q 926 151 885 184 l 974 190 l 1014 144 l 829 -5 q 751 54 791 20 q 663 144 705 94 l 507 9 q 404 70 461 49 q 291 90 349 90 q 288 90 289 90 q 157 62 220 90 q 47 -14 94 35 l 21 -14 m 259 718 q 256 680 256 699 q 263 624 256 652 q 366 469 286 528 l 631 907 q 524 930 578 929 q 515 930 519 930 q 391 900 448 930 q 291 807 328 867 q 259 718 266 766 m 264 221 q 332 237 298 233 q 387 241 359 241 q 473 232 430 241 q 604 176 545 216 l 688 247 l 688 376 l 357 376 l 264 221 m 444 519 l 688 519 l 688 876 q 667 889 674 885 l 444 519 z "},"B":{"ha":1119,"x_min":20,"x_max":1099,"o":"m 24 546 q 52 604 32 578 q 102 644 73 631 q 191 665 132 658 l 191 701 q 194 743 191 726 q 210 782 198 765 q 274 836 226 806 q 333 873 294 848 q 392 910 372 897 q 351 911 373 908 q 267 932 331 913 q 206 942 234 942 q 181 940 193 942 q 135 920 154 935 q 108 881 115 904 l 75 881 q 200 1023 113 974 q 311 1054 253 1053 q 315 1054 313 1054 q 404 1042 351 1054 q 496 1027 465 1029 q 507 1027 501 1027 q 578 1038 542 1027 q 629 1061 602 1046 l 621 1030 l 416 869 q 394 850 401 857 q 378 825 384 838 q 370 767 370 806 l 370 564 l 370 422 q 362 341 370 370 q 328 268 352 302 q 238 182 293 217 q 119 132 183 148 l 106 165 q 150 204 130 179 q 187 306 180 243 q 191 416 191 336 l 191 510 l 149 510 q 123 509 131 510 q 99 500 112 507 q 70 460 77 486 q 68 430 66 445 l 42 430 q 20 510 20 469 q 24 546 20 528 m 44 -45 q 194 123 100 54 q 398 216 288 192 q 419 253 408 230 q 433 298 429 275 q 436 345 436 317 l 436 779 q 622 957 517 882 q 858 1077 730 1035 l 1082 813 l 909 692 q 996 653 956 675 q 1099 583 1050 625 l 1099 235 l 635 -5 q 368 63 503 63 q 319 61 344 63 q 182 26 244 54 q 78 -45 125 0 l 44 -45 m 469 226 q 501 227 485 227 q 658 200 583 227 q 668 196 661 199 q 675 193 674 194 l 675 951 q 644 918 656 937 q 621 850 623 886 l 621 565 l 621 487 q 616 423 621 448 q 597 362 611 389 q 513 265 575 320 q 491 245 506 258 q 469 226 477 233 m 715 175 q 804 114 764 149 l 918 167 l 918 320 l 715 218 l 715 175 m 715 262 l 918 365 l 918 466 l 715 363 l 715 262 m 715 408 l 898 500 q 834 541 867 522 q 715 594 777 572 l 715 408 m 715 604 l 900 742 l 715 960 l 715 604 z "},"C":{"ha":940,"x_min":21,"x_max":920,"o":"m 21 497 q 132 810 26 669 q 399 1004 235 948 l 413 984 q 263 844 320 936 l 630 1068 q 772 985 694 1021 q 865 949 817 965 l 909 985 l 920 972 l 755 800 q 606 870 679 830 q 596 876 603 872 q 586 882 589 880 l 586 135 q 743 197 672 147 q 859 334 817 249 l 886 334 q 849 191 882 258 q 715 39 804 98 q 522 -24 630 -16 q 493 -24 508 -24 q 325 9 408 -24 q 158 125 228 50 q 54 297 90 199 q 21 479 21 387 q 21 497 21 488 m 193 610 q 191 555 191 582 q 205 422 191 485 q 229 346 213 383 l 304 378 l 304 823 l 230 777 q 193 610 201 705 m 244 313 q 283 252 264 275 q 414 155 338 186 q 538 132 470 132 q 546 132 543 132 l 546 905 q 494 939 518 923 l 484 932 l 484 413 l 244 313 z "},"D":{"ha":1037,"x_min":21,"x_max":1017,"o":"m 21 -44 q 141 103 66 41 q 307 195 216 166 q 378 271 353 241 q 415 333 406 306 q 425 404 425 359 l 425 546 l 425 654 q 441 784 425 738 q 487 859 457 826 l 442 859 q 389 791 403 824 q 375 704 375 760 l 375 596 l 375 454 q 368 374 375 403 q 334 300 357 334 q 243 214 298 249 q 124 164 189 180 l 111 197 q 155 236 136 211 q 193 338 186 275 q 196 448 196 368 l 196 452 l 162 452 q 137 450 149 452 q 113 441 124 448 q 84 401 91 429 q 83 371 80 386 l 56 371 q 35 452 35 410 q 39 488 35 469 q 66 545 46 519 q 117 585 87 572 q 196 606 146 598 l 196 640 q 199 685 196 667 q 216 727 203 708 q 282 787 233 755 l 392 859 l 199 859 q 161 863 175 859 q 130 885 143 869 q 106 932 114 903 q 98 985 100 955 q 98 990 98 987 q 112 1091 98 1037 l 142 1090 q 155 1060 144 1074 q 180 1039 165 1047 q 211 1029 192 1031 q 243 1028 222 1028 l 623 1028 q 793 1002 732 1028 q 927 895 873 969 q 1016 611 1006 783 q 1017 564 1017 588 q 983 325 1017 446 q 926 178 963 254 l 578 -13 q 349 64 475 60 q 338 64 343 64 q 194 37 264 64 q 60 -44 118 9 l 21 -44 m 377 211 q 451 216 414 216 q 536 209 494 216 l 536 850 q 478 771 496 819 q 464 654 464 732 l 463 546 l 463 404 q 452 319 463 352 q 408 247 439 285 q 377 211 388 222 m 576 200 q 751 115 674 175 q 813 338 793 224 q 829 510 829 432 l 576 382 l 576 200 m 576 427 l 828 554 q 828 562 828 557 q 827 570 827 567 q 816 654 824 616 l 576 533 l 576 427 m 576 577 l 805 693 q 753 788 786 750 q 669 846 718 828 q 576 859 631 859 l 576 577 z "},"E":{"ha":940,"x_min":21,"x_max":920,"o":"m 21 497 q 129 811 24 671 q 399 1004 232 949 l 413 984 q 263 844 321 937 l 630 1068 q 772 985 694 1021 q 865 949 817 965 l 909 985 l 920 972 l 755 800 q 606 870 681 829 q 596 876 603 872 q 585 882 589 880 l 585 639 l 909 639 l 740 463 l 585 463 l 585 135 q 749 197 673 146 q 873 334 826 248 l 899 334 q 863 191 897 260 q 722 37 814 93 q 522 -24 631 -20 q 504 -24 513 -24 q 326 14 413 -24 q 161 129 231 54 q 56 298 92 202 q 21 486 21 390 q 21 497 21 492 m 193 610 q 191 550 191 579 q 204 422 191 484 q 228 346 212 383 l 304 378 l 304 823 l 230 777 q 193 610 201 705 m 243 312 q 283 252 263 276 q 414 156 337 186 q 539 132 474 132 q 546 132 543 132 l 546 905 q 494 939 518 923 l 484 932 l 484 413 l 243 312 z "},"F":{"ha":1062,"x_min":20,"x_max":1042,"o":"m 26 -20 q 80 60 40 28 q 180 98 119 90 q 225 242 218 154 q 228 327 228 280 q 228 368 228 340 q 227 409 227 395 l 227 508 l 163 508 q 137 507 146 508 q 113 497 125 505 q 84 456 90 482 q 83 420 80 437 l 56 420 q 36 502 36 457 q 39 534 36 517 q 66 594 45 568 q 117 636 87 622 q 137 644 126 641 q 160 650 147 648 q 180 655 172 653 q 204 659 189 656 q 226 662 220 661 q 227 662 227 662 q 227 663 227 663 l 227 696 q 231 739 227 726 q 251 777 237 758 q 265 793 257 785 q 279 808 273 802 q 295 823 285 814 q 311 838 306 833 q 418 931 360 886 q 364 924 390 924 q 342 925 356 924 q 250 951 321 928 q 180 965 209 965 q 155 962 165 965 q 110 941 130 957 q 81 900 90 924 l 49 900 q 173 1049 88 998 q 285 1082 225 1080 l 289 1082 q 386 1066 325 1082 q 487 1047 452 1048 l 498 1047 q 569 1058 536 1047 q 621 1082 597 1067 l 619 1046 q 548 1000 572 1015 q 479 949 498 967 q 429 881 447 921 q 407 749 407 832 l 406 552 l 406 289 q 396 227 406 249 q 355 178 384 199 q 293 140 335 162 q 235 109 251 119 l 223 100 q 330 90 260 100 q 444 77 368 85 q 469 108 462 88 q 475 149 475 123 l 475 851 l 744 1089 q 886 1010 810 1044 q 960 983 930 992 l 1004 1023 l 1042 994 l 872 826 q 765 867 811 844 q 670 922 712 892 l 670 667 l 948 667 l 790 505 l 670 505 l 670 307 q 443 35 567 157 q 380 -24 422 14 q 330 -64 342 -56 q 300 -75 315 -73 q 268 -78 286 -78 l 186 -79 q 168 -81 174 -79 q 152 -87 156 -83 q 140 -100 146 -91 q 134 -116 134 -107 q 136 -143 132 -130 q 149 -166 140 -155 q 196 -193 170 -189 l 196 -229 q 191 -229 194 -229 q 95 -199 138 -229 q 30 -115 48 -167 q 20 -62 20 -89 q 26 -20 20 -41 z "},"G":{"ha":1006,"x_min":20,"x_max":987,"o":"m 21 468 q 57 640 24 556 q 149 790 91 723 q 306 914 215 866 q 497 973 397 962 l 633 1081 q 774 989 699 1027 q 877 945 825 963 l 922 990 l 950 962 l 720 734 q 845 678 787 720 q 939 577 903 637 q 985 437 977 513 q 987 396 987 416 q 970 290 987 341 q 814 72 931 161 q 590 -26 715 -4 q 502 -33 546 -33 q 346 -8 422 -33 q 210 64 273 16 q 104 175 147 111 q 20 448 20 298 q 21 468 20 458 m 213 589 q 232 391 214 493 q 256 287 241 337 q 275 311 267 297 q 300 389 293 340 q 304 470 304 416 l 304 865 q 243 778 264 827 q 213 598 213 708 q 213 589 213 593 m 280 222 q 285 212 282 218 q 290 201 288 205 q 418 57 337 106 q 557 18 484 18 l 557 573 l 484 500 l 484 476 q 473 384 484 418 q 425 304 458 340 q 320 235 382 260 q 280 222 299 227 m 484 556 l 735 805 q 606 872 666 837 q 496 945 554 903 l 494 945 q 488 944 492 944 q 484 943 485 944 l 484 667 l 484 556 m 597 21 l 606 23 q 753 115 696 42 q 809 280 807 186 l 809 298 l 597 191 l 597 21 m 597 236 l 804 340 q 775 427 796 384 l 597 337 l 597 236 m 597 382 l 755 461 q 737 486 748 473 q 597 587 680 555 l 597 382 z "},"H":{"ha":1043,"x_min":21,"x_max":1023,"o":"m 21 -48 q 112 71 54 20 q 240 147 169 122 q 368 170 304 170 q 496 148 432 170 l 496 934 q 473 904 484 920 q 446 850 456 880 q 433 732 433 810 l 433 624 l 433 422 q 430 362 433 387 q 413 304 425 330 q 332 216 389 252 q 178 165 265 172 l 178 199 q 223 237 208 215 q 248 293 240 260 q 256 353 254 319 q 256 374 256 362 q 255 418 255 393 q 254 475 254 460 l 254 479 l 220 479 q 195 477 207 479 q 171 469 182 475 q 142 429 149 456 q 141 399 138 415 l 114 399 q 93 478 93 437 q 97 515 93 496 q 124 573 104 549 q 175 612 144 599 q 254 633 204 626 l 254 668 q 267 751 254 722 q 319 818 281 787 q 359 847 333 829 q 395 871 385 865 q 461 935 425 894 l 496 976 l 536 976 l 536 639 l 727 639 l 727 889 l 690 924 l 642 888 l 641 926 l 802 1057 l 907 971 l 948 1004 l 972 974 l 920 931 l 920 179 l 960 135 l 1003 172 l 1023 151 l 839 -5 l 705 118 l 671 92 l 655 113 l 726 168 l 727 476 l 536 476 l 536 132 q 559 120 544 128 l 420 -12 q 274 37 354 34 q 262 37 268 37 q 159 18 210 38 q 63 -48 103 -5 l 21 -48 m 31 870 q 66 944 46 913 q 135 1017 96 992 q 203 1044 166 1036 q 256 1048 227 1048 q 275 1048 265 1048 q 317 1043 290 1046 q 355 1038 344 1040 q 391 1036 373 1036 q 435 1040 414 1036 q 508 1067 473 1046 l 534 1053 q 526 1045 532 1050 q 518 1036 521 1039 q 439 956 466 977 q 339 905 390 916 q 296 901 320 901 q 260 903 279 901 q 223 908 251 904 q 181 913 196 912 q 144 911 159 914 q 94 894 115 907 q 58 857 71 879 l 31 870 z "},"I":{"ha":826,"x_min":20,"x_max":806,"o":"m 22 46 q 20 24 20 35 q 27 -20 20 1 q 82 -102 42 -70 q 174 -139 122 -135 l 174 -117 q 128 -100 146 -117 q 106 -58 108 -82 q 109 -33 104 -43 q 126 -13 114 -20 q 151 -4 138 -5 q 176 -5 162 -3 l 304 -22 q 361 -27 338 -27 q 380 -26 372 -27 q 417 -16 400 -24 q 450 4 435 -7 q 635 175 553 79 q 742 325 695 245 l 742 901 q 753 986 742 957 q 806 1052 768 1028 l 785 1075 l 703 1021 q 656 987 675 1001 q 616 952 638 974 q 581 909 595 931 q 551 831 560 876 q 546 748 546 804 l 546 167 q 538 117 546 134 q 505 81 528 92 q 424 108 471 90 q 362 135 407 115 q 292 163 317 155 q 190 183 237 183 q 151 180 170 183 q 44 108 81 165 q 22 46 26 80 m 90 885 q 197 1033 126 976 q 321 1084 254 1078 q 339 1085 330 1085 q 424 1074 377 1085 q 525 1052 504 1054 q 544 1051 534 1051 q 612 1063 579 1051 q 665 1096 641 1074 l 663 1059 q 609 1000 640 1025 q 576 975 600 991 q 542 948 553 958 q 491 881 509 920 q 468 749 468 831 l 468 552 l 468 445 q 465 391 468 414 q 448 338 460 362 q 371 262 426 296 q 249 208 319 229 l 203 208 q 263 268 241 229 q 286 336 280 296 q 289 409 289 360 l 289 508 l 238 508 q 212 507 221 508 q 188 497 200 505 q 159 456 165 482 q 159 420 155 439 l 132 420 q 111 502 111 458 q 115 534 111 517 q 141 594 121 568 q 193 635 161 621 q 289 660 220 648 l 289 696 q 292 743 289 728 q 309 785 298 768 q 375 848 326 811 q 486 937 423 885 q 395 921 440 922 q 389 921 392 921 q 307 928 353 921 q 220 940 239 939 q 165 930 186 940 q 122 885 134 916 l 90 885 z "},"J":{"ha":826,"x_min":21,"x_max":807,"o":"m 22 100 q 21 78 21 89 q 51 -17 21 28 q 143 -96 83 -66 q 301 -132 214 -132 q 383 -125 340 -132 q 570 -52 487 -108 q 716 131 672 16 q 749 366 749 216 l 749 777 q 758 916 749 867 q 807 1046 772 987 l 789 1063 q 761 1042 770 1048 q 731 1020 757 1038 q 697 995 706 1002 q 671 973 689 988 q 640 945 652 958 q 618 916 628 931 q 571 794 582 865 q 565 663 565 755 l 565 212 q 547 76 565 125 q 468 -35 524 11 q 361 -91 419 -76 q 300 -99 330 -99 q 241 -91 270 -99 q 162 -50 197 -79 q 108 21 127 -20 q 151 11 130 11 q 202 26 177 11 q 236 62 223 39 q 249 109 248 82 q 249 113 249 111 q 218 184 249 154 q 142 214 187 214 q 61 180 97 214 q 22 100 29 149 m 59 924 q 135 1042 72 998 q 260 1079 187 1079 q 272 1079 266 1079 q 399 1057 309 1078 q 517 1041 473 1041 q 527 1041 522 1041 q 662 1090 604 1045 l 693 1061 q 587 975 623 1009 q 523 888 541 932 q 505 782 505 847 l 505 183 q 493 96 505 130 q 443 25 479 58 q 256 -65 374 -38 l 256 -20 q 298 5 281 -12 q 317 34 311 17 q 322 69 322 47 l 322 458 l 288 458 q 262 456 271 458 q 238 448 250 454 q 209 408 216 434 q 208 377 205 393 l 182 377 q 160 458 160 416 q 164 494 160 475 q 191 551 172 527 q 242 591 213 578 q 322 612 270 604 l 322 668 q 328 726 322 705 q 355 777 335 749 q 397 821 372 798 q 439 858 421 844 q 488 894 456 871 q 410 886 450 886 q 391 887 401 886 q 322 894 380 888 q 260 897 286 897 q 233 896 244 897 q 170 873 195 891 q 133 818 139 852 q 132 806 132 812 q 142 769 132 786 q 180 738 155 746 l 175 726 q 81 804 113 747 q 56 892 56 845 q 59 924 56 907 z "},"K":{"ha":1088,"x_min":21,"x_max":1069,"o":"m 21 871 q 128 1019 73 967 q 185 1058 157 1045 q 247 1071 214 1071 q 253 1071 250 1071 q 327 1055 281 1070 q 400 1034 377 1038 q 425 1033 412 1033 q 460 1036 443 1033 q 532 1067 500 1045 l 530 1046 q 527 1043 529 1045 q 523 1040 524 1041 q 479 1000 497 1021 q 408 883 433 947 q 385 734 385 826 l 385 581 l 385 473 q 382 411 385 431 q 363 352 376 378 q 279 261 337 301 q 166 203 228 227 l 120 203 q 168 240 148 216 q 201 314 192 270 q 206 395 206 340 l 206 511 l 169 511 q 146 510 154 511 q 125 503 134 508 q 95 471 103 492 q 91 431 87 451 l 64 431 q 47 511 47 471 q 50 549 47 530 q 76 610 57 585 q 127 651 98 638 q 207 665 157 664 q 222 762 208 723 q 256 824 235 797 q 308 873 271 842 l 365 922 q 326 907 345 911 q 287 902 308 902 q 234 909 262 902 q 206 916 224 911 q 172 925 187 922 q 144 929 157 928 q 132 930 138 930 q 89 919 106 930 q 54 871 60 903 l 21 871 m 35 -31 q 90 54 56 12 q 275 193 165 149 q 354 250 316 219 q 420 329 399 288 q 436 376 432 353 q 440 429 439 393 l 447 760 q 465 887 448 839 q 530 1000 485 947 q 626 1087 570 1048 l 637 1071 l 648 1055 q 559 975 594 1016 q 502 875 519 928 q 486 759 487 831 l 481 522 l 764 850 q 635 892 694 854 l 581 833 l 562 853 l 732 1057 q 813 1006 766 1019 q 854 1000 834 1000 q 913 1015 885 1000 q 964 1078 951 1036 l 983 1078 q 985 1044 985 1061 q 965 960 985 1000 q 880 875 937 905 q 804 852 846 857 l 624 644 q 723 595 679 627 q 808 506 774 559 q 857 393 838 459 q 872 334 863 373 q 883 288 881 296 q 923 187 898 227 q 974 127 943 154 l 1069 201 l 1069 159 l 857 -9 q 779 52 812 12 q 730 140 749 88 l 538 -11 q 370 69 463 49 q 292 78 329 78 q 256 76 274 78 q 149 39 195 68 q 77 -31 104 12 l 35 -31 m 378 220 q 404 222 387 221 q 430 223 417 223 q 552 204 492 223 q 683 134 625 181 l 723 165 q 703 248 715 192 q 664 370 684 328 q 583 468 633 431 q 503 504 546 495 l 486 484 l 480 484 l 479 429 q 474 370 477 391 q 456 311 468 336 q 379 220 433 265 l 378 220 z "},"L":{"ha":954,"x_min":21,"x_max":934,"o":"m 21 871 q 128 1019 66 966 q 186 1056 157 1043 q 253 1071 216 1069 q 256 1071 254 1071 q 337 1058 290 1071 q 420 1038 399 1041 q 444 1037 433 1037 q 507 1049 477 1037 q 560 1082 536 1060 l 558 1045 q 491 980 528 1009 q 455 954 475 967 q 433 935 440 941 q 396 882 410 913 q 372 734 372 825 l 372 538 l 372 431 q 354 296 372 345 q 274 186 330 231 q 152 134 222 145 l 106 134 q 167 193 144 153 q 191 292 188 229 q 193 395 193 315 l 193 482 l 151 482 q 128 481 136 482 q 106 474 115 479 q 77 441 85 463 q 73 401 69 423 l 46 401 q 28 482 28 441 q 32 519 28 500 q 58 581 39 556 q 110 622 79 608 q 193 636 142 636 l 193 683 q 198 749 193 728 q 227 809 206 783 q 275 854 245 833 q 331 891 290 865 q 363 913 347 901 q 326 907 338 907 q 309 906 317 906 q 238 913 277 906 q 151 926 172 926 q 144 926 147 926 q 96 916 117 926 q 54 871 65 901 l 21 871 m 77 -36 q 231 130 134 66 q 376 195 297 174 q 403 233 391 211 q 430 338 425 276 q 432 448 432 366 l 432 526 l 432 655 q 436 778 432 743 q 471 895 444 846 q 560 991 503 951 q 757 1064 631 1040 l 778 1068 l 779 1053 l 749 1039 q 684 1002 709 1021 q 636 947 653 979 q 614 877 620 916 q 611 803 611 852 l 611 694 l 611 454 q 600 370 611 401 q 556 296 587 332 q 461 210 519 254 q 521 212 491 212 q 699 189 606 212 q 866 124 785 165 l 911 157 l 934 126 l 730 -26 q 432 54 591 54 q 412 54 422 54 q 77 -62 226 48 l 77 -36 z "},"M":{"ha":1465,"x_min":21,"x_max":1444,"o":"m 21 881 l 47 868 q 75 907 56 891 q 109 926 91 921 q 134 929 121 929 q 159 926 146 929 q 209 913 169 924 q 268 902 244 903 q 275 902 272 902 q 328 910 302 902 q 410 957 369 923 q 477 1023 437 980 l 494 1041 l 467 1054 q 452 1039 460 1046 q 418 1017 433 1021 q 378 1015 401 1012 q 345 1021 366 1017 q 288 1038 326 1025 q 229 1054 253 1050 q 210 1055 219 1055 q 174 1050 191 1055 q 125 1027 149 1044 q 56 955 85 1000 q 21 881 34 921 m 30 515 q 58 574 37 548 q 108 613 79 600 q 201 635 135 626 q 208 681 203 666 q 245 761 218 723 q 362 862 279 810 l 640 1038 l 827 884 l 833 878 l 909 924 l 909 1025 l 949 1025 l 949 947 l 1099 1038 l 1276 881 l 1333 928 l 1358 897 l 1286 839 l 1286 193 l 1346 140 l 1425 193 l 1444 173 l 1233 0 l 1073 133 l 1026 100 l 1013 119 l 1093 175 l 1093 396 q 1016 425 1059 425 q 1010 425 1013 425 q 949 402 978 422 l 949 163 l 993 193 l 1013 173 l 780 0 l 620 133 l 574 100 l 560 119 l 647 180 l 647 394 q 568 425 612 425 q 562 425 565 425 q 500 402 529 422 l 500 349 l 500 216 q 490 142 500 169 q 448 80 477 107 q 336 20 399 35 q 272 12 311 15 q 209 3 229 9 q 174 -18 186 -3 q 161 -55 159 -34 q 174 -84 161 -71 q 200 -102 184 -95 q 234 -107 217 -108 l 234 -140 q 216 -142 225 -142 l 172 -134 q 117 -101 140 -123 q 67 19 68 -54 q 67 23 67 21 q 103 124 67 80 q 161 167 126 152 q 231 184 190 179 q 277 186 239 184 q 336 193 316 189 q 386 210 362 198 q 426 243 409 222 q 456 310 448 270 q 460 383 460 330 l 460 600 l 460 889 q 402 824 423 861 q 384 777 389 802 q 380 726 380 758 l 380 416 q 373 355 380 377 q 342 302 364 327 q 249 243 309 267 q 141 220 199 224 l 134 246 q 168 260 154 248 q 187 285 179 269 q 197 313 193 296 q 199 374 199 330 l 199 479 l 154 479 q 128 478 136 479 q 104 469 117 476 q 75 429 82 456 q 74 399 71 414 l 47 399 q 26 479 26 438 q 30 515 26 497 m 500 443 q 564 464 529 463 q 570 464 566 464 q 647 435 614 464 l 647 574 q 569 545 612 545 q 564 545 566 545 q 500 566 530 545 l 500 443 m 500 607 q 562 585 529 587 q 568 585 565 585 q 647 615 612 585 l 647 785 l 500 886 l 500 607 m 827 206 l 909 144 l 909 885 l 827 835 l 827 206 m 949 443 q 1013 464 977 463 q 1018 464 1015 464 q 1093 437 1059 464 l 1093 572 q 1018 545 1058 545 q 1013 545 1015 545 q 949 566 978 546 l 949 443 m 949 606 q 1010 585 977 587 q 1016 585 1013 585 q 1093 613 1059 585 l 1093 779 l 949 895 l 949 606 z "},"N":{"ha":997,"x_min":21,"x_max":977,"o":"m 21 68 q 63 184 21 134 q 160 246 100 228 q 232 256 195 256 l 232 484 l 217 484 q 194 484 198 484 q 172 476 180 481 q 155 460 161 469 q 150 437 149 449 q 168 407 151 418 l 161 387 q 94 430 121 398 q 63 504 67 461 q 62 518 62 511 q 111 625 62 579 q 182 666 140 654 q 232 673 205 673 l 232 861 q 225 869 228 866 q 196 893 211 885 q 159 898 178 903 q 132 880 142 894 q 117 851 124 869 q 109 825 111 837 l 82 832 q 78 872 78 852 q 106 970 78 924 q 191 1041 138 1020 q 252 1053 222 1053 l 301 1045 q 372 997 344 1031 q 402 956 384 983 q 427 918 420 928 l 762 359 q 768 586 767 465 q 769 647 769 617 q 766 817 769 736 q 684 837 723 820 q 622 878 648 852 l 568 819 l 549 839 l 722 1039 l 749 1038 q 781 1006 764 1019 q 829 983 802 991 q 859 979 844 979 q 881 982 870 979 q 922 1007 906 989 q 941 1052 939 1026 l 960 1051 q 977 983 977 1019 q 975 958 977 971 q 932 874 967 909 q 864 830 904 845 q 800 817 833 819 l 800 0 l 748 0 l 330 707 l 282 788 q 271 807 273 804 l 271 254 q 274 253 272 254 q 276 253 275 253 q 441 166 370 237 l 488 220 l 508 199 l 329 0 q 257 51 295 36 q 213 60 233 60 q 196 58 204 60 q 168 45 180 55 q 148 21 154 35 q 142 -9 142 6 q 151 -39 144 -24 q 187 -72 163 -60 q 227 -81 205 -81 q 235 -81 231 -81 l 229 -107 q 201 -109 214 -109 l 139 -98 q 64 -47 94 -82 q 21 68 21 2 z "},"O":{"ha":1004,"x_min":21,"x_max":984,"o":"m 22 466 q 21 511 21 489 q 95 816 21 675 q 223 981 144 909 q 398 1092 302 1053 l 418 1067 q 265 895 322 998 l 262 890 l 664 1063 q 809 971 743 1030 q 918 838 876 913 q 984 584 984 719 q 926 334 984 456 q 770 116 869 214 q 638 14 706 52 q 479 -38 562 -30 q 446 -39 463 -39 q 288 -1 363 -39 q 140 128 203 43 q 22 466 35 270 m 193 620 q 192 596 192 608 q 224 396 192 492 q 226 390 224 394 q 228 383 227 385 l 324 425 l 324 873 l 238 838 q 193 620 197 736 m 241 349 q 340 203 280 260 q 444 134 389 157 q 551 113 496 113 q 567 113 559 113 l 568 113 l 568 910 q 507 949 544 928 l 504 948 l 504 459 l 241 349 m 608 119 q 705 159 663 131 q 801 267 764 199 q 842 438 842 346 q 838 499 842 468 l 608 383 l 608 119 m 608 427 l 830 540 q 802 627 820 585 l 608 529 l 608 427 m 608 573 l 785 663 q 726 756 756 718 q 608 879 674 825 l 608 573 z "},"P":{"ha":937,"x_min":21,"x_max":918,"o":"m 21 19 q 218 208 88 140 l 218 467 l 194 467 q 172 468 182 468 q 149 467 158 468 q 127 461 138 466 q 109 448 117 457 q 95 410 95 433 l 95 405 l 63 405 q 54 454 54 429 q 57 482 54 468 q 87 549 64 521 q 146 593 111 576 q 209 607 176 606 q 218 606 213 607 l 218 836 q 215 872 218 857 q 199 904 212 890 q 177 917 190 913 q 151 917 164 920 q 111 885 126 910 q 99 852 102 870 l 66 852 q 94 941 68 901 q 172 1008 122 985 q 251 1026 210 1026 q 273 1025 262 1026 q 335 1006 308 1021 q 383 963 365 990 q 408 903 402 936 q 412 839 412 882 l 412 814 l 460 848 l 460 1023 l 499 1023 l 499 878 l 746 1057 q 841 978 798 1021 q 918 888 882 938 l 918 237 l 553 41 q 499 81 525 66 l 499 -115 l 499 -155 l 412 -155 l 218 -155 l 218 -115 l 218 119 q 53 19 118 90 l 21 19 m 412 -115 l 460 -115 l 460 102 q 412 119 441 111 l 412 -115 m 412 260 q 425 260 418 260 q 460 260 439 260 l 460 806 l 412 772 l 412 260 m 499 256 q 710 170 617 239 l 741 189 l 741 505 l 499 383 l 499 256 m 499 427 l 741 549 l 741 650 l 499 529 l 499 427 m 499 573 l 741 695 l 741 794 q 673 862 706 833 q 610 912 641 890 l 499 834 l 499 573 z "},"Q":{"ha":1122,"x_min":21,"x_max":1102,"o":"m 22 466 q 21 511 21 489 q 95 816 21 675 q 223 981 144 909 q 398 1092 302 1053 l 418 1067 q 265 895 322 998 l 262 890 l 664 1063 q 809 971 743 1030 q 918 838 876 913 q 984 584 984 719 q 926 334 984 456 q 828 180 887 252 q 958 37 878 94 q 1017 0 984 18 l 1073 47 l 1102 18 l 892 -148 q 811 -94 850 -126 q 711 14 766 -56 q 688 45 701 27 q 638 14 660 26 q 479 -38 562 -30 q 446 -39 463 -39 q 288 -1 363 -39 q 140 128 203 43 q 22 466 35 270 m 193 620 q 192 596 192 608 q 224 396 192 492 q 236 362 229 378 q 286 412 267 382 q 311 490 304 443 q 315 571 315 512 l 315 869 l 238 838 q 193 620 197 736 m 257 316 q 340 203 292 250 q 444 134 389 157 q 551 113 496 113 q 567 113 559 113 l 568 113 l 568 910 q 507 949 544 928 l 494 944 l 494 667 l 494 577 q 483 485 494 519 q 435 405 469 439 q 330 336 392 360 q 257 316 298 323 m 608 119 q 705 159 663 131 q 801 267 764 199 q 842 438 842 346 q 838 499 842 468 l 608 383 l 608 119 m 608 427 l 830 540 q 802 627 820 585 l 608 529 l 608 427 m 608 573 l 785 663 q 726 756 756 718 q 608 879 674 825 l 608 573 z "},"R":{"ha":1108,"x_min":21,"x_max":1088,"o":"m 21 -35 q 76 50 42 7 q 237 178 143 133 l 237 497 l 191 497 q 168 496 176 497 q 146 490 153 493 q 117 456 125 479 q 113 416 109 437 l 86 416 q 68 499 68 458 q 71 535 68 517 q 98 596 78 570 q 149 637 119 624 q 237 651 181 651 l 237 907 q 235 943 237 934 q 219 975 230 964 q 197 989 210 985 q 170 991 186 993 q 129 961 144 985 q 118 923 118 943 l 85 923 q 113 1012 87 970 q 191 1079 142 1056 q 271 1097 231 1097 q 293 1096 282 1097 q 355 1076 326 1092 q 403 1034 385 1061 q 427 975 421 1008 q 432 909 432 950 l 432 889 l 488 936 l 488 1084 l 528 1084 l 528 968 l 703 1114 l 923 812 l 696 617 q 741 590 724 603 q 827 502 793 553 q 876 389 857 455 q 890 331 882 368 q 902 283 899 293 q 942 183 917 223 q 992 123 963 149 l 1088 197 l 1088 155 l 875 -14 q 798 47 831 7 q 748 140 767 85 q 745 149 747 143 q 743 157 743 155 l 524 -16 q 355 65 447 45 q 278 74 315 74 q 242 72 260 74 q 136 35 182 64 q 63 -35 90 7 l 21 -35 m 432 218 q 488 212 460 218 l 488 890 l 432 842 l 432 218 m 528 203 q 669 129 608 180 l 736 182 l 722 243 q 682 366 704 321 q 602 464 652 428 q 549 492 577 482 l 528 473 l 528 203 m 528 522 l 747 711 l 570 962 l 528 925 l 528 522 z "},"S":{"ha":907,"x_min":20,"x_max":887,"o":"m 22 -3 q 20 27 20 12 q 39 125 20 77 q 113 246 62 184 q 211 351 151 291 q 273 409 231 371 l 285 420 l 91 547 l 91 827 l 471 1067 q 615 986 536 1007 q 682 977 650 977 q 735 984 709 977 q 830 1055 799 1002 q 848 1112 846 1082 l 848 1113 l 867 1112 l 869 1112 l 887 1112 l 886 1093 q 882 1035 886 1058 q 785 827 863 927 q 654 698 747 779 q 758 653 708 680 q 861 583 810 625 l 861 235 l 480 -5 q 321 98 412 69 q 232 111 277 111 q 224 111 228 111 q 107 94 151 109 q 79 80 90 89 q 62 60 68 71 q 60 30 60 45 q 61 11 60 20 q 99 -80 66 -41 q 222 -146 142 -132 q 298 -152 251 -152 q 363 -150 327 -152 q 570 -121 500 -142 q 663 -75 626 -104 q 724 9 707 -40 q 729 28 727 20 l 766 17 q 761 -2 764 9 q 700 -113 742 -62 q 602 -197 659 -163 q 368 -260 496 -260 q 355 -260 361 -260 q 195 -225 268 -258 q 68 -123 116 -190 q 22 -3 30 -68 m 142 220 q 262 271 196 258 q 333 277 297 277 q 484 249 407 277 q 559 215 521 235 l 559 545 l 510 569 l 298 380 q 238 323 268 353 q 146 224 178 263 q 144 222 145 224 q 142 220 143 221 m 273 650 l 349 597 l 349 876 q 299 907 323 889 l 273 895 l 273 650 m 389 570 l 425 545 l 596 698 q 628 726 604 705 q 664 757 652 747 q 693 785 675 768 q 727 819 712 803 q 754 852 741 835 q 756 854 755 852 q 758 856 757 855 q 676 819 721 832 q 589 808 635 808 q 454 831 525 808 q 389 856 425 840 l 389 570 m 598 193 q 652 154 617 181 l 679 167 l 679 486 l 598 526 l 598 193 z "},"T":{"ha":905,"x_min":20,"x_max":886,"o":"m 27 509 q 138 718 50 632 q 348 825 226 806 l 361 805 q 222 641 269 743 l 527 771 l 527 350 l 282 247 q 348 197 310 219 q 500 158 419 157 q 542 160 521 158 q 657 195 602 168 l 657 430 l 566 522 l 657 613 l 657 784 q 647 785 654 784 q 637 786 640 785 q 580 797 610 790 q 511 813 550 804 q 454 827 472 823 q 366 849 430 833 q 267 873 302 865 q 219 879 240 879 q 191 876 203 879 q 155 859 170 871 q 132 829 138 846 q 127 807 127 818 q 132 785 127 796 q 161 752 140 763 l 149 732 q 66 816 90 758 q 53 878 53 846 q 63 934 53 905 q 119 1013 79 980 q 206 1057 156 1044 q 273 1065 237 1065 q 313 1063 292 1065 q 418 1037 357 1058 q 456 1024 431 1033 q 496 1010 481 1015 q 532 999 511 1006 q 572 989 554 993 q 602 982 583 987 q 634 975 622 977 q 664 969 646 972 q 696 966 681 966 q 736 974 720 964 q 753 987 747 980 q 760 1007 759 996 q 755 1029 761 1018 q 741 1046 751 1039 q 699 1064 726 1058 q 654 1072 684 1067 l 654 1098 q 683 1099 670 1099 q 706 1098 696 1099 q 800 1070 759 1093 q 869 1002 845 1045 q 886 937 886 970 q 881 899 886 918 q 819 815 867 847 q 732 783 783 790 q 696 781 715 781 l 696 614 l 789 522 l 696 429 l 696 218 q 724 239 719 235 q 841 399 803 303 l 867 399 q 867 384 867 392 q 825 215 867 296 q 682 64 776 120 q 480 5 591 9 q 465 5 472 5 q 291 41 376 5 q 133 151 199 79 q 38 319 66 222 q 20 437 20 378 q 27 509 20 473 m 203 374 q 256 276 220 321 l 348 315 l 348 654 l 203 593 q 186 481 186 536 q 203 374 186 427 z "},"U":{"ha":1175,"x_min":21,"x_max":1155,"o":"m 21 865 q 145 1023 81 974 q 197 1053 172 1044 q 241 1060 220 1060 q 257 1059 249 1060 q 307 1044 279 1056 q 328 1035 312 1042 q 354 1024 345 1027 q 404 1011 384 1013 q 413 1011 409 1010 q 455 1019 434 1011 q 515 1056 475 1026 q 523 1061 518 1057 q 529 1067 527 1065 l 562 1034 q 435 920 490 987 q 349 774 380 853 q 308 564 308 673 q 310 517 308 541 q 348 359 316 432 l 425 391 l 425 610 l 425 730 q 443 846 425 804 q 513 940 463 891 q 666 1061 562 985 l 695 1062 l 695 935 l 885 1057 l 1005 957 l 1061 1002 l 1086 972 l 1024 923 l 1024 193 l 1092 135 l 1135 172 l 1155 151 l 971 0 l 815 131 l 600 -16 q 430 17 513 -16 q 282 107 347 49 q 175 244 217 165 q 122 408 133 322 q 117 475 117 442 q 179 708 117 597 q 387 908 252 840 q 326 897 358 897 q 296 899 311 897 q 212 923 281 901 q 151 934 178 934 q 126 931 138 934 q 81 908 99 924 q 54 865 61 890 l 21 865 m 364 326 q 498 180 413 234 q 655 130 571 136 l 655 1009 q 618 957 631 987 q 604 851 604 922 l 604 790 l 604 427 l 364 326 m 695 130 q 706 131 699 130 q 716 132 713 132 l 831 208 l 831 471 l 695 402 l 695 130 m 695 447 l 831 515 l 831 616 l 695 548 l 695 447 m 695 593 l 831 661 l 831 848 l 754 932 l 695 895 l 695 593 z "},"V":{"ha":977,"x_min":21,"x_max":958,"o":"m 21 18 q 103 135 50 84 q 223 214 157 186 l 223 511 l 191 511 q 176 511 183 511 q 146 509 157 511 q 124 504 135 509 q 106 491 113 500 q 94 469 99 484 q 90 444 90 458 l 90 439 l 58 439 q 52 488 52 464 q 56 525 52 507 q 90 604 64 570 q 159 656 119 641 q 202 663 180 664 q 223 662 212 663 l 223 903 q 220 939 223 927 q 205 971 216 960 q 182 986 195 982 q 154 988 168 990 q 109 957 126 983 q 97 924 100 941 l 64 924 q 63 935 63 930 q 86 1013 63 976 q 170 1081 116 1060 q 243 1095 205 1095 q 279 1092 260 1095 q 340 1071 313 1086 q 388 1029 370 1054 q 413 970 406 1003 q 418 905 418 945 l 418 839 l 476 888 l 476 1081 l 516 1081 l 516 922 l 739 1112 l 874 985 l 934 1033 l 958 1003 l 876 936 l 876 937 l 876 321 l 930 364 l 956 321 l 511 -18 q 396 62 463 33 q 258 90 329 90 q 47 18 140 90 l 21 18 m 418 239 q 476 227 448 235 l 476 835 l 418 786 l 418 239 m 516 212 q 635 133 587 181 l 703 186 l 703 515 l 516 421 l 516 212 m 516 466 l 703 560 l 703 661 l 516 567 l 516 466 m 516 612 l 703 706 l 703 886 l 627 961 l 516 868 l 516 612 z "},"W":{"ha":1303,"x_min":21,"x_max":1283,"o":"m 21 18 q 103 135 50 84 q 223 214 156 186 l 223 498 l 168 498 q 142 497 151 498 q 118 488 130 495 q 89 448 96 475 q 88 418 85 435 l 62 418 q 40 498 40 457 q 44 534 40 516 q 71 593 52 568 q 122 632 92 618 q 140 640 131 636 q 162 646 150 643 q 180 649 174 648 q 203 653 186 650 q 223 656 220 655 l 223 718 l 223 890 q 221 924 223 913 q 208 954 218 940 q 182 975 197 968 q 150 981 167 982 q 102 960 123 979 q 76 916 81 942 l 41 916 q 41 929 41 922 q 54 987 41 960 q 140 1068 79 1043 q 222 1085 180 1084 q 258 1082 239 1085 q 345 1046 309 1073 q 401 970 383 1017 q 416 880 414 934 l 416 787 l 416 708 l 416 238 q 479 224 455 232 l 479 1071 l 519 1071 l 519 949 l 708 1090 l 844 962 l 844 250 l 917 201 l 917 1071 l 957 1071 l 957 947 l 1147 1089 l 1283 961 l 1283 261 l 908 -20 l 670 142 l 484 -10 q 381 62 440 36 q 258 90 321 89 q 248 90 253 90 q 47 18 136 90 l 21 18 m 519 208 q 575 176 547 196 l 665 252 l 665 498 l 519 425 l 519 208 m 519 469 l 665 543 l 665 644 l 519 570 l 519 469 m 519 615 l 665 689 l 665 878 l 575 952 l 519 910 l 519 615 m 942 184 l 1022 130 l 1104 189 l 1104 499 l 957 425 l 957 184 l 942 184 m 957 469 l 1104 544 l 1104 645 l 957 570 l 957 469 m 957 615 l 1104 690 l 1104 876 l 1014 951 l 957 908 l 957 615 z "},"X":{"ha":968,"x_min":21,"x_max":948,"o":"m 21 859 q 61 955 31 911 q 138 1026 92 1000 q 239 1057 186 1055 q 253 1058 245 1058 q 343 1038 300 1058 q 441 956 399 1013 q 476 901 461 929 l 661 1057 l 688 1057 q 720 1025 701 1040 q 799 999 758 999 q 819 1000 809 999 q 869 1020 846 1004 q 905 1059 892 1036 l 924 1059 q 926 1035 926 1047 q 916 970 926 1002 q 871 892 901 925 q 726 827 811 829 q 708 828 714 827 l 588 667 l 878 667 l 743 518 l 650 518 q 855 168 749 301 l 909 196 l 948 129 l 728 -12 l 459 494 l 273 245 q 277 245 275 245 q 281 244 280 244 q 519 149 406 231 l 566 202 l 586 182 l 407 -18 q 281 60 345 41 q 239 66 259 66 q 207 61 222 66 q 175 43 190 56 q 153 13 159 30 q 148 -14 148 -1 q 157 -47 148 -31 q 192 -82 168 -71 q 228 -90 210 -91 q 241 -90 235 -90 l 234 -115 q 206 -117 220 -117 l 144 -106 q 70 -56 102 -91 q 25 60 25 -5 q 68 176 25 126 q 166 236 106 218 q 224 245 191 243 l 427 518 l 78 518 l 213 667 l 368 667 l 313 771 q 245 891 269 852 q 218 924 231 913 q 180 939 200 939 q 152 932 165 939 q 130 916 140 927 q 103 859 109 892 l 21 859 m 490 874 q 496 859 492 869 q 503 843 500 848 l 566 704 l 664 835 q 626 848 642 841 q 533 908 576 868 l 490 874 z "},"Y":{"ha":949,"x_min":21,"x_max":930,"o":"m 22 438 q 21 452 21 446 q 68 559 21 514 q 140 600 98 589 q 187 607 163 607 q 199 606 193 607 l 199 836 q 197 872 199 857 q 181 904 193 890 q 159 917 172 913 q 133 917 146 920 q 93 885 108 910 q 80 852 83 869 l 47 852 q 75 941 49 900 q 153 1008 104 985 q 233 1026 191 1026 q 255 1025 243 1026 q 317 1006 290 1021 q 365 963 347 990 q 389 903 382 937 q 394 839 394 879 l 394 101 q 430 92 403 99 q 471 82 456 85 q 478 81 473 81 q 484 79 482 80 l 484 1019 l 524 1019 l 524 879 l 713 1031 l 853 910 l 905 952 l 930 922 l 859 865 l 860 204 q 850 117 860 146 q 799 45 834 72 q 717 14 764 20 q 690 13 705 13 q 628 18 663 13 q 517 39 589 24 q 420 60 445 55 q 315 73 360 71 q 302 73 309 73 q 212 54 248 73 q 178 26 191 43 q 161 -16 163 6 q 170 -56 159 -38 q 198 -87 180 -75 q 267 -104 224 -104 q 278 -104 272 -104 q 333 -97 304 -103 q 398 -81 361 -91 q 452 -67 435 -71 q 628 -40 549 -45 q 669 -39 649 -39 q 758 -50 720 -39 q 817 -80 791 -60 q 857 -131 843 -101 q 869 -186 869 -158 q 869 -193 869 -189 q 852 -254 867 -225 q 758 -338 822 -310 q 706 -353 736 -347 l 699 -326 q 713 -322 707 -326 q 739 -300 729 -315 q 746 -267 748 -285 q 734 -239 745 -254 q 711 -221 726 -227 q 667 -213 692 -213 q 651 -214 659 -213 q 603 -220 628 -216 q 547 -230 578 -224 q 500 -239 515 -237 q 426 -253 475 -243 q 351 -267 377 -262 q 275 -273 310 -273 q 201 -264 233 -273 q 122 -220 156 -252 q 73 -144 88 -189 q 64 -89 64 -117 q 83 -9 64 -49 q 180 87 114 54 q 199 96 186 91 l 199 418 l 175 418 q 152 418 156 418 q 130 410 138 415 q 113 394 119 404 q 108 372 106 383 q 126 341 109 353 l 119 321 q 52 364 79 332 q 22 438 26 396 m 524 75 q 576 83 554 75 q 623 114 604 93 q 653 162 642 134 q 666 275 666 198 l 666 397 q 592 424 633 424 q 586 424 589 424 q 524 401 553 422 l 524 75 m 524 442 q 587 463 553 462 q 593 463 590 463 q 666 437 633 463 l 666 570 q 593 544 633 544 q 587 544 590 544 q 524 566 553 545 l 524 442 m 524 606 q 586 584 552 586 q 592 584 589 584 q 666 610 633 584 l 666 825 l 591 883 l 524 830 l 524 606 z "},"Z":{"ha":897,"x_min":21,"x_max":878,"o":"m 21 814 l 161 1073 q 274 1037 207 1056 q 540 996 420 997 q 631 1003 587 996 q 812 1061 728 1018 l 837 1034 q 716 837 788 931 q 543 635 644 743 l 722 635 l 604 458 l 385 458 q 237 280 317 378 l 195 228 q 449 264 319 264 q 528 261 488 264 q 818 186 679 248 l 858 233 l 878 220 l 706 -2 q 583 39 648 21 q 369 77 465 72 q 329 79 349 79 q 153 52 234 79 q 43 0 93 31 l 30 13 q 68 86 57 67 q 342 458 162 254 l 182 458 l 298 635 l 503 635 q 604 745 537 671 l 675 823 q 479 804 579 804 q 426 806 453 804 q 99 877 258 814 l 47 802 l 21 814 z "},"[":{"ha":404,"x_min":32,"x_max":377,"o":"m 32 0 l 32 40 l 32 1074 l 32 1114 l 377 1114 l 377 1074 l 211 1074 l 211 40 l 377 40 l 377 0 l 32 0 z "},"\\":{"ha":579,"x_min":-9,"x_max":600,"o":"m -9 1100 l 152 1100 l 600 -60 l 441 -60 l -9 1100 z "},"]":{"ha":404,"x_min":32,"x_max":377,"o":"m 32 0 l 377 0 l 377 40 l 377 1074 l 377 1114 l 32 1114 l 32 1074 l 198 1074 l 198 40 l 32 40 l 32 0 z "},"^":{"ha":783,"x_min":58,"x_max":755,"o":"m 58 631 l 345 922 l 651 639 l 661 631 l 755 778 l 441 1067 l 439 1069 l 429 1077 l 60 703 l 58 631 z "},"_":{"ha":1107,"x_min":15,"x_max":1085,"o":"m 15 -149 l 150 0 l 1085 -1 l 950 -150 l 15 -149 z "},"`":{"ha":389,"x_min":88,"x_max":279,"o":"m 88 954 l 267 756 l 279 765 l 160 1009 l 88 954 z "},"a":{"ha":673,"x_min":20,"x_max":654,"o":"m 21 184 q 45 258 23 222 q 96 317 62 286 q 187 379 136 353 q 167 389 180 382 q 86 454 111 415 q 68 506 70 479 q 68 513 68 510 q 77 555 68 534 q 109 596 88 578 q 155 625 123 610 l 308 705 l 513 573 l 569 618 l 593 589 l 521 530 l 521 180 l 587 113 l 648 153 l 654 126 l 460 -7 l 355 100 l 208 -7 q 60 73 115 5 q 20 174 20 119 q 21 184 20 179 m 108 519 q 129 467 109 491 q 195 418 150 440 q 273 389 225 404 q 348 369 305 379 l 348 499 l 175 606 q 146 589 158 599 q 118 558 128 576 q 108 519 108 540 m 190 311 q 187 282 187 296 q 212 189 187 235 q 248 141 228 159 q 301 115 272 119 q 319 113 311 113 q 348 117 334 113 l 348 328 q 307 341 334 332 q 266 353 279 349 q 212 370 229 364 q 190 311 195 344 z "},"b":{"ha":637,"x_min":21,"x_max":617,"o":"m 21 119 l 41 93 l 94 126 l 304 -1 l 617 178 l 617 589 l 475 722 l 300 607 l 300 1065 l 274 1065 l 47 905 l 47 885 q 79 872 66 879 q 104 852 98 862 q 113 833 111 844 q 114 812 114 826 l 114 180 l 21 119 m 300 200 l 300 562 l 363 602 l 446 515 l 446 115 l 300 200 z "},"c":{"ha":475,"x_min":21,"x_max":455,"o":"m 21 143 l 231 0 l 250 0 l 454 180 l 436 203 l 356 146 q 268 171 309 147 q 199 241 222 198 l 199 603 l 323 500 l 455 600 l 308 718 l 21 558 l 21 143 z "},"d":{"ha":605,"x_min":21,"x_max":586,"o":"m 21 139 l 21 566 l 190 670 l 59 789 l 31 784 l 31 1033 l 510 612 l 562 653 l 586 623 l 526 575 l 526 181 l 221 1 l 21 139 m 200 212 l 347 109 l 347 527 l 200 661 l 200 212 z "},"e":{"ha":619,"x_min":21,"x_max":599,"o":"m 21 120 l 87 173 l 87 539 l 419 712 l 559 499 l 559 492 l 260 306 l 260 246 l 426 133 l 579 253 l 599 220 l 313 -14 l 106 140 l 45 90 l 21 120 m 260 340 l 406 433 l 286 606 l 260 591 l 260 340 z "},"f":{"ha":629,"x_min":21,"x_max":610,"o":"m 21 119 l 114 180 l 114 547 q 113 567 114 561 q 104 586 111 578 q 79 607 95 600 q 47 613 64 614 l 47 633 l 114 704 l 114 883 l 424 1058 l 610 943 l 438 846 l 287 942 l 287 860 l 287 700 l 466 700 l 400 624 l 287 624 l 287 166 l 366 100 l 412 125 l 432 98 l 241 0 l 94 126 l 41 93 l 21 119 z "},"g":{"ha":686,"x_min":21,"x_max":667,"o":"m 21 -200 q 104 -92 45 -134 q 234 -47 163 -49 q 243 -47 239 -47 q 331 -64 288 -47 q 414 -120 379 -84 q 441 -109 429 -118 q 459 -86 452 -100 q 465 -56 466 -71 q 458 -24 463 -39 q 433 33 456 -19 q 416 86 419 64 l 416 88 l 287 0 l 87 140 l 87 539 l 400 719 l 583 582 l 642 630 l 667 600 l 600 546 l 600 193 q 604 138 600 161 q 620 86 608 111 q 637 49 635 56 q 637 8 642 27 q 614 -28 631 -14 q 580 -52 604 -38 q 545 -74 563 -61 l 288 -255 q 180 -182 249 -197 q 146 -179 163 -179 q 107 -183 127 -179 q 41 -214 70 -191 l 21 -200 m 254 226 l 413 127 q 413 135 413 130 q 412 142 412 140 l 414 486 l 254 592 l 254 226 z "},"h":{"ha":719,"x_min":21,"x_max":700,"o":"m 21 119 l 114 180 l 114 812 q 113 833 114 826 q 104 852 111 844 q 79 872 98 862 q 47 885 66 879 l 47 905 l 274 1065 l 300 1065 l 300 550 l 473 712 l 621 589 l 675 633 l 700 604 l 640 555 l 640 193 q 633 80 640 121 q 593 -26 622 20 q 473 -130 551 -96 q 351 -157 414 -157 q 307 -153 330 -157 l 307 -120 q 388 -77 354 -110 q 441 12 425 -41 q 460 180 460 69 l 460 512 l 378 581 l 300 509 l 300 166 l 346 121 l 389 151 l 414 119 l 241 0 l 98 121 l 45 87 l 21 119 z "},"i":{"ha":473,"x_min":21,"x_max":454,"o":"m 21 585 l 208 712 l 314 585 l 314 166 l 360 119 l 420 159 l 454 133 l 254 -7 l 121 113 l 74 79 l 54 106 l 140 166 l 140 532 l 94 592 l 41 559 l 21 585 m 96 899 l 229 1016 l 347 881 l 214 765 l 96 899 z "},"j":{"ha":391,"x_min":21,"x_max":372,"o":"m 21 585 l 208 712 l 298 604 l 347 643 l 372 612 l 314 566 l 314 166 l 311 36 q 301 -53 309 -17 q 264 -135 291 -97 q 163 -221 226 -191 q 43 -249 105 -249 q 33 -249 38 -249 l 33 -210 q 76 -197 57 -208 q 123 -148 106 -181 q 140 -81 136 -121 q 142 -38 142 -61 q 141 14 142 -16 q 140 57 140 43 l 140 166 l 140 532 l 94 592 l 41 559 l 21 585 m 96 899 l 229 1016 l 347 881 l 214 765 l 96 899 z "},"k":{"ha":833,"x_min":21,"x_max":813,"o":"m 21 119 l 114 180 l 114 812 q 113 833 114 826 q 104 852 111 844 q 79 872 98 862 q 47 885 66 879 l 47 905 l 274 1065 l 300 1065 l 300 166 l 354 113 l 393 146 l 414 119 l 241 0 l 94 126 l 41 93 l 21 119 m 328 386 l 534 705 l 547 705 q 586 665 561 680 q 635 652 608 652 q 640 652 637 652 q 690 667 669 654 q 727 705 714 682 l 753 705 q 741 646 749 672 q 712 582 730 610 q 665 531 692 549 q 602 507 635 511 q 583 506 593 506 q 536 513 559 506 q 467 552 497 524 l 454 526 l 727 119 l 787 159 l 813 126 l 600 -14 l 328 386 z "},"l":{"ha":433,"x_min":21,"x_max":414,"o":"m 21 119 l 114 180 l 114 812 q 113 833 114 826 q 104 852 111 844 q 79 872 98 862 q 47 885 66 879 l 47 905 l 274 1065 l 300 1065 l 300 166 l 354 113 l 393 146 l 414 119 l 241 0 l 94 126 l 41 93 l 21 119 z "},"m":{"ha":1118,"x_min":21,"x_max":1099,"o":"m 21 575 l 214 708 l 316 594 l 498 708 l 637 589 l 828 708 l 972 584 l 1017 621 l 1042 590 l 973 534 l 973 186 l 1038 119 l 1098 164 l 1099 113 l 892 -20 l 755 100 l 813 153 l 813 495 l 717 583 l 644 538 l 644 167 l 716 103 l 564 -20 l 426 100 l 484 153 l 484 495 l 388 583 l 327 546 l 327 153 l 387 100 l 254 -20 l 94 106 l 147 153 l 147 522 l 94 582 l 41 549 l 21 575 z "},"n":{"ha":806,"x_min":21,"x_max":787,"o":"m 21 575 l 214 708 l 321 589 l 473 708 l 631 573 l 690 621 l 714 590 l 647 536 l 647 173 l 707 119 l 760 159 l 787 119 l 580 -20 l 440 106 l 487 153 l 487 495 l 387 582 l 327 534 l 327 153 l 387 100 l 254 -20 l 94 106 l 147 153 l 147 522 l 94 582 l 41 549 l 21 575 z "},"o":{"ha":625,"x_min":21,"x_max":604,"o":"m 21 124 l 92 182 l 92 539 l 405 719 l 604 566 l 604 186 l 298 0 q 201 71 266 24 q 103 141 136 117 l 45 94 l 21 124 m 272 213 l 431 106 l 431 506 l 272 612 l 272 213 z "},"p":{"ha":679,"x_min":21,"x_max":659,"o":"m 21 600 l 189 713 q 248 663 224 690 q 283 610 270 636 l 283 584 l 458 715 l 593 596 l 635 631 l 659 601 l 608 558 l 608 172 q 482 93 540 134 q 377 11 429 56 q 283 58 329 39 l 283 -5 q 285 -37 283 -22 q 294 -66 287 -54 q 315 -90 301 -79 q 347 -102 328 -99 l 347 -122 l 149 -241 l 122 -241 l 122 109 q 50 121 83 117 l 122 181 l 122 528 q 117 555 123 543 q 100 578 111 570 q 68 588 85 588 q 36 578 50 588 l 21 600 m 283 162 l 297 156 q 435 96 376 123 l 435 509 l 344 584 l 283 538 l 283 162 z "},"q":{"ha":637,"x_min":21,"x_max":617,"o":"m 21 127 l 163 -5 l 338 109 l 338 -237 l 364 -237 l 591 -77 l 591 -58 q 558 -44 574 -52 q 534 -24 541 -35 q 526 -5 528 -16 q 524 16 524 2 l 524 537 l 617 597 l 597 624 l 544 591 l 334 717 l 21 539 l 21 127 m 192 201 l 192 602 l 338 517 l 338 155 l 275 115 l 192 201 z "},"r":{"ha":606,"x_min":21,"x_max":587,"o":"m 21 585 l 208 712 l 309 603 l 406 713 l 420 713 q 480 678 441 680 q 517 687 499 677 q 546 713 536 696 l 587 713 q 572 635 582 669 q 546 574 562 599 q 496 529 526 543 q 450 519 475 519 q 444 519 448 519 q 393 530 418 519 q 325 576 357 545 l 325 166 l 380 123 l 454 174 l 481 143 l 273 -7 l 121 113 l 74 79 l 54 106 l 140 166 l 140 532 l 94 592 l 41 559 l 21 585 z "},"s":{"ha":565,"x_min":20,"x_max":545,"o":"m 28 106 q 118 235 46 163 l 153 267 l 47 350 l 47 545 l 334 711 q 392 661 357 677 q 437 650 415 650 q 481 665 462 650 q 505 708 502 681 l 506 708 l 545 708 q 507 560 536 627 q 467 494 490 524 q 424 451 452 476 l 544 363 l 544 153 l 269 -14 q 206 43 247 26 q 166 51 184 51 q 163 51 165 51 q 123 38 140 50 q 104 14 109 27 q 104 -16 98 -1 q 121 -36 109 -29 l 107 -73 q 62 -44 82 -63 q 32 1 43 -24 q 20 56 20 28 q 28 106 20 81 m 106 165 q 189 197 142 193 q 204 198 197 198 q 278 180 242 198 q 364 91 336 153 l 364 272 l 288 334 l 237 290 q 146 208 182 243 q 106 165 115 176 m 227 440 l 284 382 l 387 469 q 435 517 416 494 q 448 534 441 525 q 399 520 425 524 q 378 519 389 519 l 313 532 q 227 621 251 559 l 227 440 z "},"t":{"ha":486,"x_min":21,"x_max":466,"o":"m 21 119 l 114 180 l 114 519 q 113 539 114 532 q 104 558 111 550 q 79 579 95 572 q 47 585 64 587 l 47 605 l 274 832 l 300 832 l 300 672 l 466 672 l 400 596 l 300 596 l 300 166 l 366 100 l 412 125 l 432 98 l 241 0 l 94 126 l 41 93 l 21 119 z "},"u":{"ha":758,"x_min":21,"x_max":738,"o":"m 21 591 l 200 707 q 239 686 220 699 q 284 640 267 666 q 305 591 299 617 q 310 540 310 572 l 310 205 l 397 123 l 463 172 q 463 184 463 176 q 463 197 463 193 l 463 239 l 463 524 l 391 588 l 521 708 l 614 629 l 663 662 l 682 635 l 623 589 l 623 257 l 623 199 q 634 135 623 157 q 661 104 644 115 l 712 146 l 738 112 l 571 -3 q 511 26 537 1 q 469 105 479 55 q 465 132 466 118 l 290 -5 l 100 153 l 144 189 l 144 515 q 142 545 144 535 q 131 572 138 561 q 109 590 123 583 q 79 593 95 596 q 67 589 75 592 q 35 571 50 583 l 21 591 z "},"v":{"ha":729,"x_min":21,"x_max":709,"o":"m 21 694 q 43 768 21 734 q 114 831 68 805 q 205 859 156 854 l 212 832 q 209 831 211 831 q 207 830 208 830 q 171 808 186 823 q 152 762 152 787 q 152 756 152 759 q 175 706 154 728 q 220 671 187 693 q 265 638 251 651 q 312 557 300 606 q 319 462 319 528 l 319 170 l 444 90 l 484 114 l 484 536 l 422 592 l 568 713 l 709 589 l 657 547 l 657 170 l 338 -20 l 151 95 l 107 60 l 83 90 l 145 141 l 145 403 l 145 452 q 139 500 144 485 q 99 566 130 534 q 82 583 94 572 q 62 603 71 593 q 46 621 53 612 q 21 694 21 655 z "},"w":{"ha":1043,"x_min":21,"x_max":1023,"o":"m 21 694 q 43 768 21 734 q 114 831 68 805 q 205 859 156 854 l 212 832 q 209 831 211 831 q 207 830 208 830 q 171 808 186 823 q 152 762 152 787 q 152 756 152 759 q 175 706 154 728 q 220 671 187 693 q 265 638 251 651 q 312 557 300 606 q 319 462 319 528 l 319 170 l 428 98 l 454 114 l 454 536 l 393 592 l 538 713 l 680 589 l 628 547 l 627 170 l 737 98 l 768 116 l 768 536 l 706 592 l 852 713 l 939 636 l 998 685 l 1023 654 l 941 588 l 941 151 l 618 -20 l 484 77 l 309 -20 l 151 95 l 107 60 l 83 90 l 145 141 l 145 403 l 145 452 q 139 500 144 485 q 99 566 130 534 q 82 583 94 572 q 62 603 71 593 q 46 621 53 612 q 21 694 21 655 z "},"x":{"ha":705,"x_min":10,"x_max":685,"o":"m 10 604 l 186 723 l 297 657 l 368 505 l 451 709 l 484 709 q 544 675 505 676 q 581 683 564 673 q 609 709 599 692 l 651 709 q 636 632 646 667 q 610 569 625 591 q 560 525 590 537 q 515 516 539 516 q 508 516 511 516 q 456 527 488 517 q 418 542 434 534 l 387 463 l 529 160 q 541 139 536 145 q 562 127 549 130 q 586 130 574 125 q 607 141 591 131 q 647 171 629 156 l 685 136 l 490 0 l 357 86 l 294 226 l 210 9 l 210 12 l 210 9 l 195 9 q 135 44 172 39 q 122 45 129 45 q 88 38 104 45 q 50 9 65 28 l 21 9 q 33 82 23 45 q 62 149 43 121 q 119 193 85 180 q 164 201 140 201 q 171 201 168 201 q 222 191 193 201 q 231 188 225 190 q 239 185 237 186 l 274 271 l 147 557 q 130 585 138 576 q 100 600 119 597 q 68 593 85 602 q 40 576 61 590 q 36 574 39 576 q 32 571 33 572 l 10 604 z "},"y":{"ha":719,"x_min":21,"x_max":703,"o":"m 21 582 l 41 555 l 96 589 l 147 529 l 147 140 l 347 0 l 477 90 q 478 89 477 90 q 478 87 478 87 q 492 33 482 57 q 504 6 495 26 q 517 -25 513 -14 q 524 -56 524 -43 q 519 -86 526 -71 q 501 -109 512 -101 q 473 -120 490 -118 q 391 -64 439 -84 q 303 -47 348 -47 q 294 -47 298 -47 q 164 -92 223 -49 q 81 -200 105 -134 l 101 -214 q 168 -183 130 -191 q 206 -179 187 -179 q 241 -182 224 -179 q 348 -255 309 -197 l 604 -74 q 640 -52 623 -61 q 675 -28 665 -37 q 697 8 690 -15 q 697 49 703 28 q 680 86 696 56 q 663 138 667 113 q 660 193 660 161 l 660 559 l 534 709 l 399 618 l 474 529 l 475 142 l 475 125 l 314 226 l 314 582 l 208 708 l 21 582 z "},"z":{"ha":606,"x_min":21,"x_max":587,"o":"m 21 13 l 34 0 q 144 52 83 38 q 217 60 179 60 q 317 47 264 60 q 440 6 379 34 l 587 186 l 567 199 l 527 153 q 334 206 434 200 q 302 208 318 207 q 161 186 229 208 l 203 238 q 254 299 237 279 l 400 299 l 513 433 l 494 452 l 461 419 l 360 419 q 438 510 406 470 q 560 686 510 597 l 547 705 q 411 656 485 664 q 369 653 391 653 q 247 669 313 653 q 134 705 192 683 l 28 506 l 54 492 l 87 546 q 226 508 153 515 q 267 506 246 506 q 393 526 330 506 q 301 419 347 471 l 161 419 l 47 286 l 67 266 l 101 299 l 195 299 q 61 111 104 194 q 21 13 37 64 z "},"{":{"ha":444,"x_min":18,"x_max":410,"o":"m 18 526 l 18 542 q 75 608 51 569 q 115 728 106 661 q 119 810 119 755 q 123 893 119 865 q 144 972 129 937 q 189 1036 161 1009 q 231 1065 206 1053 l 410 1065 l 410 1050 q 368 1021 385 1038 q 323 956 340 994 q 302 878 308 921 q 298 794 298 850 q 294 713 298 739 q 254 593 286 645 q 208 536 235 562 q 238 513 222 528 q 283 448 267 486 q 304 369 298 414 q 308 286 308 341 q 312 204 309 231 q 353 85 321 137 q 410 18 376 45 l 410 2 l 231 2 q 174 69 198 28 q 133 189 142 121 q 129 270 130 215 q 125 353 129 326 q 104 432 119 397 q 59 497 87 471 q 18 526 42 514 z "},"|":{"ha":227,"x_min":40,"x_max":189,"o":"m 40 -7 l 189 127 l 189 1057 l 40 922 l 40 -7 z "},"}":{"ha":444,"x_min":18,"x_max":410,"o":"m 18 2 l 197 2 q 254 69 229 28 q 294 189 286 121 q 298 270 298 215 q 302 353 298 326 q 323 432 308 397 q 368 497 340 471 q 410 526 385 514 l 410 542 q 353 608 376 569 q 312 728 321 661 q 308 810 309 755 q 304 893 308 865 q 283 972 298 937 q 238 1036 267 1009 q 197 1065 221 1053 l 18 1065 l 18 1050 q 59 1021 42 1038 q 104 956 87 994 q 125 878 119 921 q 129 794 129 850 q 133 713 130 739 q 174 593 142 645 q 220 536 193 562 q 189 513 205 528 q 144 448 161 486 q 123 369 129 414 q 119 286 119 341 q 115 204 119 231 q 75 85 106 137 q 18 18 51 45 l 18 2 z "},"~":{"ha":743,"x_min":40,"x_max":725,"o":"m 40 512 q 93 578 66 548 q 185 651 137 627 q 300 674 236 676 q 415 652 342 673 q 506 627 480 633 q 600 625 560 616 q 646 644 627 631 q 682 683 669 660 l 725 664 q 679 590 705 621 q 587 517 640 543 q 493 494 543 496 q 397 505 445 492 q 342 523 379 510 q 286 540 306 535 q 172 543 222 556 q 125 524 149 538 q 83 493 101 511 l 40 512 z "},"":{"ha":208,"x_min":0,"x_max":0,"o":""},"":{"ha":296,"x_min":21,"x_max":275,"o":"m 21 108 l 212 -15 l 239 -15 l 179 755 l 140 755 l 76 231 q 74 208 75 223 q 71 184 73 192 q 66 161 68 168 q 53 141 62 150 q 21 128 40 128 l 21 108 m 23 938 l 148 813 l 275 940 l 150 1065 l 23 938 z "},"":{"ha":475,"x_min":21,"x_max":455,"o":"m 21 143 l 21 558 l 212 665 l 212 794 l 250 794 l 250 686 l 308 718 l 455 600 l 323 500 l 199 603 l 199 241 q 268 171 222 198 q 356 146 309 147 l 436 203 l 454 180 l 250 0 l 250 -82 l 212 -82 l 212 13 l 21 143 z "},"":{"ha":904,"x_min":18,"x_max":905,"o":"m 18 30 q 77 299 64 162 q 81 479 84 374 q 78 539 80 496 q 75 600 75 583 q 77 659 75 616 q 132 837 84 753 q 256 975 179 921 q 441 1048 340 1034 q 610 1043 520 1059 q 765 981 705 1027 q 820 917 801 953 q 838 836 842 878 q 806 759 835 791 q 732 724 777 726 q 655 753 688 722 q 625 829 623 784 q 639 876 627 854 q 673 911 652 898 q 719 925 694 924 q 767 918 745 927 q 584 1014 690 997 q 464 1009 524 1023 q 357 958 404 995 q 277 847 302 915 q 260 711 260 798 l 260 659 l 319 659 l 319 739 q 330 840 319 806 q 380 928 345 892 q 503 991 431 981 q 641 966 576 1002 l 614 933 q 566 935 590 942 q 526 907 543 927 q 506 863 511 888 q 503 814 503 846 l 503 659 l 695 659 l 692 510 l 503 510 l 503 408 q 496 350 503 370 q 469 299 490 326 q 428 255 452 277 q 386 218 404 232 q 337 182 368 204 q 433 189 388 191 q 481 184 456 188 q 536 176 506 181 q 583 170 566 172 q 731 180 672 159 q 831 257 795 202 l 905 152 q 821 44 879 86 q 692 -4 766 5 q 660 -6 676 -6 q 625 -5 644 -7 q 594 -2 607 -3 q 559 3 581 -1 q 528 9 538 7 q 495 16 519 12 q 298 35 366 43 q 163 -14 222 25 l 132 14 q 237 100 199 64 q 302 187 283 144 q 319 294 319 229 l 319 510 l 260 510 l 260 413 q 254 281 260 321 q 207 159 243 210 q 186 134 198 146 q 166 113 175 121 q 141 91 157 104 q 117 72 125 78 q 90 53 109 66 q 64 34 71 39 q 35 12 47 22 l 18 30 z "},"":{"ha":699,"x_min":15,"x_max":680,"o":"m 15 592 l 39 622 l 121 556 l 405 719 l 582 583 l 640 630 l 664 600 l 604 551 l 604 203 l 680 142 l 656 111 l 581 172 l 298 0 l 103 141 l 45 94 l 21 124 l 92 182 l 92 530 l 15 592 m 272 213 l 431 106 l 431 506 l 272 612 l 272 213 z "},"":{"ha":949,"x_min":16,"x_max":930,"o":"m 22 438 q 68 559 16 509 q 140 600 98 589 q 199 606 169 608 l 199 836 q 197 872 199 857 q 181 904 193 890 q 159 917 172 913 q 133 917 146 920 q 93 885 108 910 q 80 852 83 869 l 47 852 q 75 941 49 900 q 153 1008 104 985 q 255 1025 201 1031 q 317 1006 290 1021 q 365 963 347 990 q 389 903 382 937 q 394 839 394 879 l 394 549 l 484 549 l 484 1019 l 524 1019 l 524 879 l 713 1031 l 853 910 l 905 952 l 930 922 l 859 865 l 860 549 l 924 549 l 924 510 l 860 510 l 860 438 l 924 438 l 924 399 l 860 399 l 860 204 q 850 117 860 146 q 799 45 834 72 q 717 14 764 20 q 628 18 682 10 q 517 39 589 24 q 420 60 445 55 q 315 73 360 71 q 212 54 253 76 q 178 26 191 43 q 161 -16 163 6 q 170 -56 159 -38 q 198 -87 180 -75 q 278 -104 228 -107 q 333 -97 304 -103 q 398 -81 361 -91 q 452 -67 435 -71 q 628 -40 549 -45 q 758 -50 705 -34 q 817 -80 791 -60 q 857 -131 843 -101 q 869 -193 871 -162 q 852 -254 867 -225 q 758 -338 822 -310 q 706 -353 736 -347 l 699 -326 q 713 -322 707 -326 q 739 -300 729 -315 q 746 -267 748 -285 q 734 -239 745 -254 q 711 -221 726 -227 q 651 -214 686 -210 q 603 -220 628 -216 q 547 -230 578 -224 q 500 -239 515 -237 q 426 -253 475 -243 q 351 -267 377 -262 q 201 -264 260 -281 q 122 -220 156 -252 q 73 -144 88 -189 q 83 -9 51 -76 q 180 87 114 54 q 199 96 186 91 l 199 418 l 175 418 q 152 418 156 418 q 130 410 138 415 q 113 394 119 404 q 108 372 106 383 q 126 341 109 353 l 119 321 q 52 364 79 332 q 22 438 26 396 m 394 101 q 430 92 403 99 q 471 82 456 85 q 478 81 473 81 q 484 79 482 80 l 484 399 l 394 399 l 394 101 m 394 438 l 484 438 l 484 510 l 394 510 l 394 438 m 524 75 q 576 83 554 75 q 623 114 604 93 q 653 162 642 134 q 666 275 666 198 l 666 399 l 524 399 l 524 75 m 524 438 l 666 438 l 666 510 l 524 510 l 524 438 m 524 549 l 666 549 l 666 825 l 591 883 l 524 830 l 524 549 z "},"":{"ha":227,"x_min":40,"x_max":189,"o":"m 40 -7 l 189 127 l 189 543 l 40 408 l 40 -7 m 40 550 l 189 685 l 189 1100 l 40 965 l 40 550 z "},"":{"ha":907,"x_min":15,"x_max":887,"o":"m 68 -123 q 22 -3 30 -68 q 39 125 15 62 q 113 246 62 184 q 211 351 151 291 q 273 409 231 371 l 285 420 l 91 547 l 91 827 l 471 1067 q 615 986 536 1007 q 735 984 681 969 q 830 1055 799 1002 q 848 1112 846 1082 l 848 1113 l 867 1112 l 869 1112 l 887 1112 l 886 1093 q 882 1035 886 1058 q 785 827 863 927 q 654 698 747 779 q 758 653 708 680 q 861 583 810 625 l 861 235 l 480 -5 q 321 98 412 69 q 224 111 273 113 q 107 94 151 109 q 79 80 90 89 q 62 60 68 71 q 61 11 58 35 q 99 -80 66 -41 q 222 -146 142 -132 q 363 -150 269 -155 q 570 -121 500 -142 q 663 -75 626 -104 q 724 9 707 -40 q 729 28 727 20 l 766 17 q 761 -2 764 9 q 700 -113 742 -62 q 602 -197 659 -163 q 355 -260 490 -263 q 195 -225 268 -258 q 68 -123 116 -190 m 142 220 q 262 271 196 258 q 484 249 369 291 q 559 215 521 235 l 559 545 l 510 569 l 298 380 q 238 323 268 353 q 146 224 178 263 q 144 222 145 224 q 142 220 143 221 m 273 650 l 349 597 l 349 876 q 299 907 323 889 l 273 895 l 273 650 m 389 570 l 425 545 l 596 698 q 628 726 604 705 q 664 757 652 747 q 693 785 675 768 q 727 819 712 803 q 754 852 741 835 q 756 854 755 852 q 758 856 757 855 q 676 819 721 832 q 454 831 575 792 q 389 856 425 840 l 389 570 m 598 193 q 652 154 617 181 l 679 167 l 679 486 l 598 526 l 598 193 z "},"":{"ha":0,"x_min":21,"x_max":592,"o":"m 21 849 l 146 974 l 273 847 l 148 722 l 21 849 m 340 849 l 465 974 l 592 847 l 467 722 l 340 849 z "},"":{"ha":1107,"x_min":-34,"x_max":1088,"o":"m 11 131 q -12 182 11 131 q -34 347 -34 234 q 11 564 -34 460 q 130 742 55 667 q 309 861 205 817 q 527 905 413 905 q 745 861 641 905 q 924 742 849 817 q 1044 564 1000 667 q 1088 347 1088 460 q 1044 131 1088 234 q 924 -47 1000 27 q 745 -166 849 -122 q 527 -211 641 -211 q 309 -167 413 -211 q 130 -48 205 -123 q 11 131 55 27 m 36 553 q 15 504 36 553 q -6 347 -6 455 q 36 141 -6 239 q 150 -28 79 43 q 320 -141 221 -99 q 527 -183 418 -183 q 734 -141 635 -183 q 904 -28 833 -99 q 1018 141 975 43 q 1060 347 1060 239 q 1018 553 1060 455 q 904 723 975 652 q 734 836 833 793 q 527 878 635 878 q 320 836 418 878 q 150 723 221 793 q 36 553 79 652 m 287 349 q 342 505 290 436 q 476 602 394 574 l 483 592 q 408 522 437 569 l 591 634 q 663 593 624 610 q 709 574 691 580 l 731 593 l 736 586 l 654 500 q 580 535 621 513 q 575 538 578 536 q 569 541 571 541 l 569 168 q 648 199 612 174 q 706 267 686 227 l 719 267 q 701 195 717 229 q 633 120 677 149 q 538 88 589 91 q 439 105 488 85 q 355 163 391 125 q 303 248 321 199 q 287 349 286 297 m 373 406 q 378 311 369 355 q 391 273 381 297 l 429 290 l 429 511 l 391 489 q 373 406 376 450 m 398 256 q 418 226 404 243 q 484 178 446 193 q 549 166 516 165 l 549 553 q 524 570 545 555 l 518 566 l 518 307 l 398 256 z "},"":{"ha":589,"x_min":56,"x_max":533,"o":"m 58 667 q 77 723 60 696 q 115 767 91 747 q 183 813 144 792 q 168 820 175 816 q 107 869 125 840 q 94 908 94 889 q 101 945 93 927 q 124 976 110 964 q 159 998 138 988 l 273 1058 l 427 959 l 469 993 l 488 970 l 433 926 l 433 663 l 484 614 l 528 644 l 533 623 l 388 524 l 309 604 l 199 524 q 87 583 129 532 q 58 667 56 623 m 123 918 q 139 879 123 898 q 189 843 155 859 q 248 821 217 830 q 303 806 269 814 l 303 903 l 174 983 q 152 970 164 979 q 132 948 138 960 q 123 918 123 933 m 185 763 q 201 670 178 715 q 229 635 211 651 q 269 614 248 618 q 303 617 285 612 l 303 775 l 242 793 q 201 806 215 802 q 185 763 189 786 z "},"":{"ha":791,"x_min":35,"x_max":743,"o":"m 35 509 q 227 361 138 445 q 410 139 334 258 q 318 414 402 287 q 237 509 283 466 q 318 603 285 553 q 410 878 402 730 q 227 656 334 758 q 35 509 140 574 m 368 509 q 559 361 470 446 q 743 139 669 257 q 652 414 736 287 q 571 509 617 466 q 652 603 618 553 q 743 878 736 730 q 559 656 669 760 q 368 509 472 572 z "},"":{"ha":686,"x_min":21,"x_max":657,"o":"m 21 445 l 191 635 l 507 635 l 656 635 l 657 186 l 509 186 l 508 458 l 75 458 l 41 425 l 21 445 z "},"":{"ha":686,"x_min":21,"x_max":667,"o":"m 21 445 l 191 635 l 614 635 l 646 668 l 667 648 l 496 458 l 75 458 l 41 425 l 21 445 z "},"":{"ha":1129,"x_min":2,"x_max":1124,"o":"m 46 131 q 24 182 46 131 q 2 347 2 234 q 46 564 2 460 q 166 742 91 667 q 346 861 241 817 q 564 905 450 905 q 782 861 677 905 q 961 742 886 817 q 1080 564 1036 667 q 1124 347 1124 460 q 1080 131 1124 234 q 961 -48 1036 27 q 782 -167 886 -123 q 564 -211 677 -211 q 346 -166 450 -211 q 166 -47 241 -122 q 46 131 91 27 m 73 553 q 52 504 73 553 q 31 347 31 455 q 73 141 31 239 q 186 -28 115 43 q 356 -141 258 -99 q 564 -183 455 -183 q 771 -141 672 -183 q 941 -28 869 -99 q 1054 141 1012 43 q 1097 347 1097 239 q 1054 553 1097 455 q 941 723 1012 652 q 771 836 869 793 q 564 878 672 878 q 356 836 455 878 q 186 723 258 793 q 73 553 115 652 m 296 72 q 323 115 309 98 q 404 178 356 155 l 404 338 l 381 338 q 370 338 374 338 q 359 334 362 336 q 344 318 349 329 q 342 298 340 309 l 329 298 q 321 357 315 329 q 334 388 325 376 q 360 408 345 401 q 404 415 375 415 l 404 543 q 403 562 404 555 q 395 577 401 571 q 384 585 391 582 q 371 585 378 587 q 350 570 358 583 q 345 551 345 562 l 328 551 q 342 595 330 575 q 381 629 357 618 q 432 637 405 641 q 463 628 451 635 q 487 606 477 620 q 499 577 496 593 q 502 545 502 563 l 502 534 l 530 557 l 530 632 l 549 632 l 549 574 l 637 647 l 747 496 l 633 399 q 656 385 644 393 q 699 340 682 366 q 724 284 714 319 q 730 258 726 275 q 736 231 734 240 q 757 181 745 201 q 782 151 769 161 l 829 189 l 829 167 l 723 83 q 685 113 700 94 q 660 160 669 132 q 659 164 660 161 q 657 168 658 167 l 548 82 q 463 122 509 112 q 407 125 435 128 q 353 107 378 122 q 317 72 332 94 l 296 72 m 502 199 q 530 196 519 197 l 530 535 l 502 511 l 502 199 m 549 191 q 621 155 589 180 l 654 180 q 646 211 648 201 q 627 273 637 252 q 587 321 610 305 q 560 336 574 331 l 549 326 l 549 191 m 549 351 l 659 446 l 571 570 l 549 552 l 549 351 z "},"":{"ha":0,"x_min":201,"x_max":581,"o":"m 201 782 l 201 930 l 581 929 l 581 781 l 201 782 z "},"":{"ha":325,"x_min":28,"x_max":289,"o":"m 66 766 q 47 785 66 766 q 28 859 28 804 q 66 951 28 913 q 158 989 104 989 q 251 950 212 989 q 289 859 289 912 q 250 766 289 804 q 158 728 212 728 q 66 766 104 728 m 94 923 q 81 910 94 923 q 67 859 67 897 q 94 794 67 821 q 158 767 121 767 q 222 794 195 767 q 250 859 250 821 q 223 923 250 896 q 158 949 196 949 q 94 923 121 949 z "},"":{"ha":797,"x_min":47,"x_max":764,"o":"m 47 -65 l 182 83 l 764 83 l 629 -65 l 47 -65 m 47 435 l 182 583 l 332 583 l 332 750 l 481 885 l 481 583 l 764 583 l 629 435 l 481 435 l 481 275 l 332 140 l 332 435 l 47 435 z "},"":{"ha":512,"x_min":7,"x_max":501,"o":"m 7 477 q 33 553 9 518 q 93 610 56 585 q 249 655 161 653 q 385 623 327 657 q 470 515 451 585 q 471 434 481 474 q 437 361 463 395 q 311 261 398 307 q 240 227 287 248 q 173 195 194 205 q 63 131 114 165 l 393 131 q 442 136 425 131 q 482 163 467 144 l 501 154 l 428 1 l 14 0 l 14 130 q 148 254 66 197 q 177 274 158 261 q 207 295 195 287 q 235 315 219 303 q 262 338 250 327 q 325 420 309 378 q 335 486 338 454 q 313 550 332 523 q 263 595 293 580 q 197 608 232 610 q 122 581 155 606 q 75 517 88 555 q 128 505 104 524 q 155 456 153 486 q 136 406 157 427 q 87 385 117 385 q 28 414 51 385 q 7 477 7 439 z "},"":{"ha":469,"x_min":26,"x_max":482,"o":"m 27 134 q 47 198 26 172 q 106 227 71 227 q 156 205 136 227 q 174 155 176 184 q 149 107 172 125 q 95 95 124 88 q 146 39 111 58 q 222 27 182 20 q 303 77 270 35 q 337 167 334 116 q 299 275 340 231 q 224 312 268 307 q 135 289 175 317 l 106 310 l 365 522 l 40 522 l 64 645 l 436 645 l 421 524 l 294 420 q 416 371 366 418 q 473 262 463 328 q 453 140 482 199 q 353 35 421 75 q 212 -4 287 -4 q 92 30 142 -4 q 47 75 64 47 q 27 134 28 103 z "},"":{"ha":389,"x_min":88,"x_max":279,"o":"m 88 765 l 208 1009 l 279 954 l 100 756 l 88 765 z "},"":{"ha":739,"x_min":16,"x_max":718,"o":"m 16 591 l 180 707 q 290 540 290 666 l 290 391 l 290 205 l 378 123 l 444 172 l 444 197 l 444 239 l 444 524 l 371 588 l 502 708 l 594 629 l 643 662 l 663 635 l 603 589 l 603 257 l 604 199 q 641 104 605 130 l 693 146 l 718 112 l 552 -3 q 478 41 505 3 q 446 132 451 78 l 290 11 l 290 -201 l 138 -201 l 138 118 l 138 515 q 102 590 138 574 q 29 571 69 604 l 16 591 z "},"":{"ha":880,"x_min":4,"x_max":863,"o":"m 22 684 q 127 488 40 567 q 243 418 177 441 q 378 400 309 395 l 378 -41 q 373 -77 378 -63 q 354 -106 366 -95 q 311 -131 336 -123 l 311 -176 q 498 -86 430 -149 q 549 -15 534 -54 q 561 72 561 18 l 561 782 q 578 888 561 847 q 643 975 597 932 q 749 1061 679 1009 l 718 1090 l 498 1090 q 252 1059 338 1090 q 143 996 193 1036 q 64 903 94 956 q 22 684 4 799 m 78 -11 q 107 -127 70 -73 q 199 -206 140 -177 q 439 -236 301 -257 q 625 -163 545 -220 q 723 -60 683 -122 q 781 75 763 3 q 798 175 792 119 q 804 264 803 231 q 804 366 804 298 l 804 777 q 814 916 804 867 q 863 1046 827 987 l 845 1063 q 816 1042 833 1054 q 790 1023 810 1037 q 763 1003 771 1009 q 740 985 755 998 q 714 963 724 972 q 694 942 705 954 q 673 916 682 929 q 627 794 637 865 q 621 663 621 755 l 621 100 q 603 -35 621 14 q 524 -146 580 -100 q 416 -202 475 -187 q 296 -202 355 -218 q 217 -161 253 -191 q 163 -90 182 -131 q 211 -100 186 -101 q 258 -85 235 -99 q 292 -50 279 -72 q 304 -2 303 -29 q 274 73 306 41 q 198 104 243 104 q 117 69 153 104 q 78 -11 85 38 z "},"":{"ha":293,"x_min":21,"x_max":273,"o":"m 21 562 l 146 686 l 273 559 l 148 435 l 21 562 z "},"":{"ha":283,"x_min":12,"x_max":267,"o":"m 12 165 l 162 237 q 237 182 210 216 q 265 104 267 144 q 239 39 263 71 q 184 -15 217 10 q 54 -91 135 -52 l 45 -81 q 102 -45 78 -68 q 135 3 125 -23 q 119 102 154 55 q 12 165 83 149 z "},"":{"ha":271,"x_min":36,"x_max":221,"o":"m 36 543 l 37 575 l 221 652 l 221 2 l 75 2 l 75 467 q 68 511 75 496 q 36 543 58 534 z "},"":{"ha":545,"x_min":52,"x_max":490,"o":"m 52 608 l 106 651 l 106 919 l 340 1054 l 490 939 l 490 654 l 260 515 l 114 621 l 71 585 l 52 608 m 240 674 l 360 595 l 360 894 l 240 974 l 240 674 z "},"":{"ha":791,"x_min":35,"x_max":743,"o":"m 35 139 q 126 414 42 287 q 207 509 161 466 q 126 603 159 553 q 35 878 42 730 q 218 656 109 760 q 410 509 306 572 q 218 361 308 446 q 35 139 109 257 m 368 139 q 460 414 376 287 q 541 509 494 466 q 460 603 493 553 q 368 878 376 730 q 551 656 444 758 q 743 509 637 574 q 551 361 640 445 q 368 139 444 258 z "},"":{"ha":443,"x_min":-1,"x_max":425,"o":"m -1 264 q 54 420 41 338 q 49 591 68 504 l 172 640 q 224 665 208 655 q 268 700 252 681 q 299 806 308 745 l 335 807 l 363 545 l 84 414 l 424 194 l 315 -15 l 287 -1 l 310 50 l -1 264 m 174 974 l 298 1099 l 425 972 l 300 847 l 174 974 z "},"":{"ha":1034,"x_min":21,"x_max":1014,"o":"m 21 -14 q 142 155 58 87 q 201 194 168 176 l 353 447 q 264 511 305 469 q 190 645 210 568 q 190 796 172 720 q 258 930 208 871 q 376 1023 307 988 q 523 1065 446 1058 q 671 1052 597 1072 q 808 990 745 1032 l 893 1072 l 924 1047 l 899 1021 q 872 960 880 994 q 867 895 867 935 l 867 851 l 867 384 l 867 349 q 873 239 867 266 q 926 151 885 184 l 974 190 l 1014 144 l 829 -5 q 751 54 791 20 q 663 144 705 94 l 507 9 q 405 70 462 49 q 288 90 347 91 q 157 62 220 90 q 47 -14 94 35 l 21 -14 m 291 807 q 259 718 267 766 q 263 624 252 670 q 366 469 286 528 l 631 907 q 524 930 578 929 q 391 900 452 932 q 291 807 328 867 m 264 221 q 332 237 298 233 q 473 232 402 248 q 604 176 545 216 l 688 247 l 688 376 l 357 376 l 264 221 m 444 519 l 688 519 l 688 876 q 667 889 674 885 l 444 519 m 583 1365 l 761 1167 l 773 1177 l 654 1420 l 583 1365 z "},"":{"ha":1034,"x_min":21,"x_max":1014,"o":"m 21 -14 q 142 155 58 87 q 201 194 168 176 l 353 447 q 264 511 305 469 q 190 645 210 568 q 190 796 172 720 q 258 930 208 871 q 376 1023 307 988 q 523 1065 446 1058 q 671 1052 597 1072 q 808 990 745 1032 l 893 1072 l 924 1047 l 899 1021 q 872 960 880 994 q 867 895 867 935 l 867 851 l 867 384 l 867 349 q 873 239 867 266 q 926 151 885 184 l 974 190 l 1014 144 l 829 -5 q 751 54 791 20 q 663 144 705 94 l 507 9 q 405 70 462 49 q 288 90 347 91 q 157 62 220 90 q 47 -14 94 35 l 21 -14 m 291 807 q 259 718 267 766 q 263 624 252 670 q 366 469 286 528 l 631 907 q 524 930 578 929 q 391 900 452 932 q 291 807 328 867 m 264 221 q 332 237 298 233 q 473 232 402 248 q 604 176 545 216 l 688 247 l 688 376 l 357 376 l 264 221 m 444 519 l 688 519 l 688 876 q 667 889 674 885 l 444 519 m 583 1177 l 702 1420 l 773 1365 l 595 1167 l 583 1177 z "},"":{"ha":1034,"x_min":21,"x_max":1014,"o":"m 21 -14 q 142 155 58 87 q 201 194 168 176 l 353 447 q 264 511 305 469 q 190 645 210 568 q 190 796 172 720 q 258 930 208 871 q 376 1023 307 988 q 523 1065 446 1058 q 671 1052 597 1072 q 808 990 745 1032 l 893 1072 l 924 1047 l 899 1021 q 872 960 880 994 q 867 895 867 935 l 867 851 l 867 384 l 867 349 q 873 239 867 266 q 926 151 885 184 l 974 190 l 1014 144 l 829 -5 q 751 54 791 20 q 663 144 705 94 l 507 9 q 405 70 462 49 q 288 90 347 91 q 157 62 220 90 q 47 -14 94 35 l 21 -14 m 291 807 q 259 718 267 766 q 263 624 252 670 q 366 469 286 528 l 631 907 q 524 930 578 929 q 391 900 452 932 q 291 807 328 867 m 264 221 q 332 237 298 233 q 473 232 402 248 q 604 176 545 216 l 688 247 l 688 376 l 357 376 l 264 221 m 389 1170 l 604 1388 l 834 1176 l 842 1170 l 912 1280 l 677 1497 l 675 1499 l 667 1505 l 391 1224 l 389 1170 m 444 519 l 688 519 l 688 876 q 667 889 674 885 l 444 519 z "},"":{"ha":1034,"x_min":21,"x_max":1014,"o":"m 21 -14 q 142 155 58 87 q 201 194 168 176 l 353 447 q 264 511 305 469 q 190 645 210 568 q 190 796 172 720 q 258 930 208 871 q 376 1023 307 988 q 523 1065 446 1058 q 671 1052 597 1072 q 808 990 745 1032 l 893 1072 l 924 1047 l 899 1021 q 872 960 880 994 q 867 895 867 935 l 867 851 l 867 384 l 867 349 q 873 239 867 266 q 926 151 885 184 l 974 190 l 1014 144 l 829 -5 q 751 54 791 20 q 663 144 705 94 l 507 9 q 405 70 462 49 q 288 90 347 91 q 157 62 220 90 q 47 -14 94 35 l 21 -14 m 291 807 q 259 718 267 766 q 263 624 252 670 q 366 469 286 528 l 631 907 q 524 930 578 929 q 391 900 452 932 q 291 807 328 867 m 264 221 q 332 237 298 233 q 473 232 402 248 q 604 176 545 216 l 688 247 l 688 376 l 357 376 l 264 221 m 376 1183 q 420 1242 397 1215 q 496 1308 459 1287 q 591 1329 540 1331 q 687 1308 629 1327 q 763 1286 737 1292 q 841 1284 809 1277 q 879 1301 863 1290 q 909 1337 899 1316 l 945 1320 q 906 1253 928 1282 q 829 1187 874 1211 q 751 1166 792 1168 q 672 1177 715 1164 q 626 1192 656 1181 q 581 1208 596 1204 q 485 1211 528 1223 q 447 1194 465 1204 q 412 1165 429 1182 l 376 1183 m 444 519 l 688 519 l 688 876 q 667 889 674 885 l 444 519 z "},"":{"ha":1034,"x_min":21,"x_max":1014,"o":"m 21 -14 q 142 155 58 87 q 201 194 168 176 l 353 447 q 264 511 305 469 q 190 645 210 568 q 190 796 172 720 q 258 930 208 871 q 376 1023 307 988 q 523 1065 446 1058 q 671 1052 597 1072 q 808 990 745 1032 l 893 1072 l 924 1047 l 899 1021 q 872 960 880 994 q 867 895 867 935 l 867 851 l 867 384 l 867 349 q 873 239 867 266 q 926 151 885 184 l 974 190 l 1014 144 l 829 -5 q 751 54 791 20 q 663 144 705 94 l 507 9 q 405 70 462 49 q 288 90 347 91 q 157 62 220 90 q 47 -14 94 35 l 21 -14 m 291 807 q 259 718 267 766 q 263 624 252 670 q 366 469 286 528 l 631 907 q 524 930 578 929 q 391 900 452 932 q 291 807 328 867 m 264 221 q 332 237 298 233 q 473 232 402 248 q 604 176 545 216 l 688 247 l 688 376 l 357 376 l 264 221 m 371 1324 l 496 1449 l 623 1322 l 498 1198 l 371 1324 m 444 519 l 688 519 l 688 876 q 667 889 674 885 l 444 519 m 690 1324 l 815 1449 l 942 1322 l 817 1198 l 690 1324 z "},"":{"ha":1034,"x_min":21,"x_max":1014,"o":"m 21 -14 q 142 155 58 87 q 201 194 168 176 l 353 447 q 264 511 305 469 q 190 645 210 568 q 190 796 172 720 q 258 930 208 871 q 376 1023 307 988 q 523 1065 446 1058 q 598 1065 560 1067 q 526 1111 554 1075 q 497 1192 497 1146 q 535 1284 497 1245 q 628 1322 574 1322 q 720 1284 682 1322 q 758 1192 758 1246 q 720 1100 758 1138 q 628 1061 682 1061 l 626 1061 q 808 990 726 1046 l 893 1072 l 924 1047 l 899 1021 q 872 960 880 994 q 867 895 867 935 l 867 851 l 867 384 l 867 349 q 873 239 867 266 q 926 151 885 184 l 974 190 l 1014 144 l 829 -5 q 751 54 791 20 q 663 144 705 94 l 507 9 q 405 70 462 49 q 288 90 347 91 q 157 62 220 90 q 47 -14 94 35 l 21 -14 m 291 807 q 259 718 267 766 q 263 624 252 670 q 366 469 286 528 l 631 907 q 524 930 578 929 q 391 900 452 932 q 291 807 328 867 m 264 221 q 332 237 298 233 q 473 232 402 248 q 604 176 545 216 l 688 247 l 688 376 l 357 376 l 264 221 m 444 519 l 688 519 l 688 876 q 667 889 674 885 l 444 519 m 563 1256 q 550 1242 563 1256 q 536 1192 536 1229 q 563 1127 536 1154 q 628 1100 590 1100 q 692 1127 665 1100 q 719 1192 719 1154 q 692 1256 719 1230 q 628 1283 665 1283 q 563 1256 590 1283 z "},"":{"ha":1650,"x_min":32,"x_max":1598,"o":"m 32 -14 q 153 155 68 86 q 212 194 181 177 l 365 447 q 275 511 315 470 q 201 645 220 568 q 201 796 182 720 q 269 930 219 871 q 387 1023 317 988 q 534 1065 457 1058 q 682 1052 608 1072 q 819 990 756 1032 l 905 1072 l 935 1047 q 911 1021 920 1034 q 884 960 891 994 q 878 895 878 932 l 878 851 l 878 806 l 1308 1068 q 1450 985 1372 1021 q 1543 949 1495 965 l 1587 985 l 1598 972 l 1433 800 q 1284 870 1356 830 q 1274 876 1280 872 q 1263 882 1267 880 l 1263 639 l 1587 639 l 1417 463 l 1263 463 l 1263 135 q 1429 193 1354 143 q 1550 334 1508 245 l 1577 334 q 1540 191 1575 261 q 1400 37 1492 93 q 1200 -24 1310 -18 q 1004 12 1100 -28 q 837 127 907 52 q 768 218 798 168 l 755 216 l 518 9 q 415 70 473 49 q 298 90 358 91 q 168 62 231 90 q 58 -14 104 35 l 32 -14 m 302 807 q 270 718 277 766 q 274 624 263 670 q 312 537 285 578 q 378 469 339 497 l 642 907 q 534 930 589 929 q 401 900 463 932 q 302 807 338 867 m 275 221 q 343 237 308 232 q 485 232 414 248 q 615 176 555 216 l 699 248 l 699 376 l 368 376 l 275 221 m 455 519 l 699 519 l 699 876 q 677 889 685 885 l 455 519 m 878 394 q 899 342 885 370 l 982 378 l 982 823 l 878 760 l 878 394 m 917 311 q 962 252 937 278 q 1081 167 1012 198 q 1223 134 1150 136 l 1223 905 q 1172 939 1196 923 l 1162 932 l 1161 413 l 917 311 z "},"":{"ha":940,"x_min":18,"x_max":920,"o":"m 21 497 q 132 810 26 669 q 399 1004 235 948 l 413 984 q 263 844 320 936 l 630 1068 q 772 985 694 1021 q 865 949 817 965 l 909 985 l 920 972 l 755 800 q 606 870 679 830 q 596 876 603 872 q 586 882 589 880 l 586 135 q 743 197 672 147 q 859 334 817 249 l 886 334 q 849 191 882 258 q 715 39 804 98 q 551 -20 642 -7 q 570 -41 560 -29 q 597 -119 600 -78 q 572 -182 595 -152 q 517 -237 550 -212 q 387 -313 468 -273 l 378 -302 q 435 -267 411 -289 q 468 -220 458 -245 q 452 -120 487 -168 q 345 -57 416 -73 l 425 -19 q 280 31 349 -6 q 158 125 210 68 q 54 297 90 199 q 21 497 18 395 m 193 610 q 205 422 186 509 q 229 346 213 383 l 304 378 l 304 823 l 230 777 q 193 610 201 705 m 244 313 q 283 252 264 275 q 414 155 338 186 q 546 132 473 131 l 546 905 q 494 939 518 923 l 484 932 l 484 413 l 244 313 z "},"":{"ha":940,"x_min":19,"x_max":920,"o":"m 21 497 q 129 811 24 671 q 399 1004 232 949 l 413 984 q 263 844 321 937 l 630 1068 q 772 985 694 1021 q 865 949 817 965 l 909 985 l 920 972 l 755 800 q 606 870 681 829 q 596 876 603 872 q 585 882 589 880 l 585 639 l 909 639 l 740 463 l 585 463 l 585 135 q 749 197 673 146 q 873 334 826 248 l 899 334 q 863 191 897 260 q 722 37 814 93 q 522 -24 631 -20 q 326 13 422 -28 q 161 129 231 54 q 55 299 92 202 q 21 497 19 395 m 193 610 q 204 422 184 511 q 228 346 212 383 l 304 378 l 304 823 l 230 777 q 193 610 201 705 m 243 312 q 283 252 263 276 q 414 156 337 186 q 546 132 477 131 l 546 905 q 494 939 518 923 l 484 932 l 484 413 l 243 312 m 538 1332 l 717 1134 l 729 1143 l 610 1387 l 538 1332 z "},"":{"ha":940,"x_min":19,"x_max":920,"o":"m 21 497 q 129 811 24 671 q 399 1004 232 949 l 413 984 q 263 844 321 937 l 630 1068 q 772 985 694 1021 q 865 949 817 965 l 909 985 l 920 972 l 755 800 q 606 870 681 829 q 596 876 603 872 q 585 882 589 880 l 585 639 l 909 639 l 740 463 l 585 463 l 585 135 q 749 197 673 146 q 873 334 826 248 l 899 334 q 863 191 897 260 q 722 37 814 93 q 522 -24 631 -20 q 326 13 422 -28 q 161 129 231 54 q 55 299 92 202 q 21 497 19 395 m 193 610 q 204 422 184 511 q 228 346 212 383 l 304 378 l 304 823 l 230 777 q 193 610 201 705 m 243 312 q 283 252 263 276 q 414 156 337 186 q 546 132 477 131 l 546 905 q 494 939 518 923 l 484 932 l 484 413 l 243 312 m 538 1143 l 657 1387 l 729 1332 l 551 1134 l 538 1143 z "},"":{"ha":940,"x_min":19,"x_max":920,"o":"m 21 497 q 129 811 24 671 q 399 1004 232 949 l 413 984 q 263 844 321 937 l 630 1068 q 772 985 694 1021 q 865 949 817 965 l 909 985 l 920 972 l 755 800 q 606 870 681 829 q 596 876 603 872 q 585 882 589 880 l 585 639 l 909 639 l 740 463 l 585 463 l 585 135 q 749 197 673 146 q 873 334 826 248 l 899 334 q 863 191 897 260 q 722 37 814 93 q 522 -24 631 -20 q 326 13 422 -28 q 161 129 231 54 q 55 299 92 202 q 21 497 19 395 m 193 610 q 204 422 184 511 q 228 346 212 383 l 304 378 l 304 823 l 230 777 q 193 610 201 705 m 243 312 q 283 252 263 276 q 414 156 337 186 q 546 132 477 131 l 546 905 q 494 939 518 923 l 484 932 l 484 413 l 243 312 m 345 1137 l 560 1355 l 790 1143 l 798 1137 l 868 1246 l 633 1464 l 631 1466 l 623 1472 l 347 1191 l 345 1137 z "},"":{"ha":940,"x_min":19,"x_max":920,"o":"m 21 497 q 129 811 24 671 q 399 1004 232 949 l 413 984 q 263 844 321 937 l 630 1068 q 772 985 694 1021 q 865 949 817 965 l 909 985 l 920 972 l 755 800 q 606 870 681 829 q 596 876 603 872 q 585 882 589 880 l 585 639 l 909 639 l 740 463 l 585 463 l 585 135 q 749 197 673 146 q 873 334 826 248 l 899 334 q 863 191 897 260 q 722 37 814 93 q 522 -24 631 -20 q 326 13 422 -28 q 161 129 231 54 q 55 299 92 202 q 21 497 19 395 m 193 610 q 204 422 184 511 q 228 346 212 383 l 304 378 l 304 823 l 230 777 q 193 610 201 705 m 243 312 q 283 252 263 276 q 414 156 337 186 q 546 132 477 131 l 546 905 q 494 939 518 923 l 484 932 l 484 413 l 243 312 m 326 1291 l 451 1416 l 578 1289 l 453 1164 l 326 1291 m 646 1291 l 770 1416 l 897 1289 l 772 1164 l 646 1291 z "},"":{"ha":826,"x_min":18,"x_max":806,"o":"m 44 108 q 22 46 26 80 q 27 -20 18 12 q 82 -102 42 -70 q 174 -139 122 -135 l 174 -117 q 128 -100 146 -117 q 106 -58 108 -82 q 109 -33 104 -43 q 126 -13 114 -20 q 151 -4 138 -5 q 176 -5 162 -3 l 304 -22 q 380 -26 355 -29 q 417 -16 400 -24 q 450 4 435 -7 q 635 175 553 79 q 742 325 695 245 l 742 901 q 753 986 742 957 q 806 1052 768 1028 l 785 1075 l 703 1021 q 656 987 675 1001 q 616 952 638 974 q 581 909 595 931 q 551 831 560 876 q 546 748 546 804 l 546 167 q 538 117 546 134 q 505 81 528 92 q 424 108 471 90 q 362 135 407 115 q 292 163 317 155 q 151 180 213 192 q 44 108 81 165 m 90 885 q 197 1033 126 976 q 321 1084 254 1078 q 424 1074 366 1088 q 525 1052 504 1054 q 612 1063 570 1048 q 665 1096 641 1074 l 663 1059 q 609 1000 640 1025 q 576 975 600 991 q 542 948 553 958 q 491 881 509 920 q 468 749 468 831 l 468 552 l 468 445 q 465 391 468 414 q 448 338 460 362 q 371 262 426 296 q 249 208 319 229 l 203 208 q 263 268 241 229 q 286 336 280 296 q 289 409 289 360 l 289 508 l 238 508 q 212 507 221 508 q 188 497 200 505 q 159 456 165 482 q 159 420 155 439 l 132 420 q 111 502 111 458 q 115 534 111 517 q 141 594 121 568 q 193 635 161 621 q 289 660 220 648 l 289 696 q 292 743 289 728 q 309 785 298 768 q 375 848 326 811 q 486 937 423 885 q 395 921 440 922 q 307 928 357 920 q 220 940 239 939 q 165 930 186 940 q 122 885 134 916 l 90 885 m 422 1388 l 600 1190 l 612 1198 l 493 1442 l 422 1388 z "},"":{"ha":826,"x_min":18,"x_max":806,"o":"m 44 108 q 22 46 26 80 q 27 -20 18 12 q 82 -102 42 -70 q 174 -139 122 -135 l 174 -117 q 128 -100 146 -117 q 106 -58 108 -82 q 109 -33 104 -43 q 126 -13 114 -20 q 151 -4 138 -5 q 176 -5 162 -3 l 304 -22 q 380 -26 355 -29 q 417 -16 400 -24 q 450 4 435 -7 q 635 175 553 79 q 742 325 695 245 l 742 901 q 753 986 742 957 q 806 1052 768 1028 l 785 1075 l 703 1021 q 656 987 675 1001 q 616 952 638 974 q 581 909 595 931 q 551 831 560 876 q 546 748 546 804 l 546 167 q 538 117 546 134 q 505 81 528 92 q 424 108 471 90 q 362 135 407 115 q 292 163 317 155 q 151 180 213 192 q 44 108 81 165 m 90 885 q 197 1033 126 976 q 321 1084 254 1078 q 424 1074 366 1088 q 525 1052 504 1054 q 612 1063 570 1048 q 665 1096 641 1074 l 663 1059 q 609 1000 640 1025 q 576 975 600 991 q 542 948 553 958 q 491 881 509 920 q 468 749 468 831 l 468 552 l 468 445 q 465 391 468 414 q 448 338 460 362 q 371 262 426 296 q 249 208 319 229 l 203 208 q 263 268 241 229 q 286 336 280 296 q 289 409 289 360 l 289 508 l 238 508 q 212 507 221 508 q 188 497 200 505 q 159 456 165 482 q 159 420 155 439 l 132 420 q 111 502 111 458 q 115 534 111 517 q 141 594 121 568 q 193 635 161 621 q 289 660 220 648 l 289 696 q 292 743 289 728 q 309 785 298 768 q 375 848 326 811 q 486 937 423 885 q 395 921 440 922 q 307 928 357 920 q 220 940 239 939 q 165 930 186 940 q 122 885 134 916 l 90 885 m 422 1198 l 541 1442 l 612 1388 l 434 1190 l 422 1198 z "},"":{"ha":826,"x_min":18,"x_max":806,"o":"m 44 108 q 22 46 26 80 q 27 -20 18 12 q 82 -102 42 -70 q 174 -139 122 -135 l 174 -117 q 128 -100 146 -117 q 106 -58 108 -82 q 109 -33 104 -43 q 126 -13 114 -20 q 151 -4 138 -5 q 176 -5 162 -3 l 304 -22 q 380 -26 355 -29 q 417 -16 400 -24 q 450 4 435 -7 q 635 175 553 79 q 742 325 695 245 l 742 901 q 753 986 742 957 q 806 1052 768 1028 l 785 1075 l 703 1021 q 656 987 675 1001 q 616 952 638 974 q 581 909 595 931 q 551 831 560 876 q 546 748 546 804 l 546 167 q 538 117 546 134 q 505 81 528 92 q 424 108 471 90 q 362 135 407 115 q 292 163 317 155 q 151 180 213 192 q 44 108 81 165 m 90 885 q 197 1033 126 976 q 321 1084 254 1078 q 424 1074 366 1088 q 525 1052 504 1054 q 612 1063 570 1048 q 665 1096 641 1074 l 663 1059 q 609 1000 640 1025 q 576 975 600 991 q 542 948 553 958 q 491 881 509 920 q 468 749 468 831 l 468 552 l 468 445 q 465 391 468 414 q 448 338 460 362 q 371 262 426 296 q 249 208 319 229 l 203 208 q 263 268 241 229 q 286 336 280 296 q 289 409 289 360 l 289 508 l 238 508 q 212 507 221 508 q 188 497 200 505 q 159 456 165 482 q 159 420 155 439 l 132 420 q 111 502 111 458 q 115 534 111 517 q 141 594 121 568 q 193 635 161 621 q 289 660 220 648 l 289 696 q 292 743 289 728 q 309 785 298 768 q 375 848 326 811 q 486 937 423 885 q 395 921 440 922 q 307 928 357 920 q 220 940 239 939 q 165 930 186 940 q 122 885 134 916 l 90 885 m 228 1192 l 444 1411 l 673 1198 l 681 1192 l 751 1302 l 516 1520 l 514 1521 l 507 1527 l 230 1246 l 228 1192 z "},"":{"ha":826,"x_min":18,"x_max":806,"o":"m 44 108 q 22 46 26 80 q 27 -20 18 12 q 82 -102 42 -70 q 174 -139 122 -135 l 174 -117 q 128 -100 146 -117 q 106 -58 108 -82 q 109 -33 104 -43 q 126 -13 114 -20 q 151 -4 138 -5 q 176 -5 162 -3 l 304 -22 q 380 -26 355 -29 q 417 -16 400 -24 q 450 4 435 -7 q 635 175 553 79 q 742 325 695 245 l 742 901 q 753 986 742 957 q 806 1052 768 1028 l 785 1075 l 703 1021 q 656 987 675 1001 q 616 952 638 974 q 581 909 595 931 q 551 831 560 876 q 546 748 546 804 l 546 167 q 538 117 546 134 q 505 81 528 92 q 424 108 471 90 q 362 135 407 115 q 292 163 317 155 q 151 180 213 192 q 44 108 81 165 m 90 885 q 197 1033 126 976 q 321 1084 254 1078 q 424 1074 366 1088 q 525 1052 504 1054 q 612 1063 570 1048 q 665 1096 641 1074 l 663 1059 q 609 1000 640 1025 q 576 975 600 991 q 542 948 553 958 q 491 881 509 920 q 468 749 468 831 l 468 552 l 468 445 q 465 391 468 414 q 448 338 460 362 q 371 262 426 296 q 249 208 319 229 l 203 208 q 263 268 241 229 q 286 336 280 296 q 289 409 289 360 l 289 508 l 238 508 q 212 507 221 508 q 188 497 200 505 q 159 456 165 482 q 159 420 155 439 l 132 420 q 111 502 111 458 q 115 534 111 517 q 141 594 121 568 q 193 635 161 621 q 289 660 220 648 l 289 696 q 292 743 289 728 q 309 785 298 768 q 375 848 326 811 q 486 937 423 885 q 395 921 440 922 q 307 928 357 920 q 220 940 239 939 q 165 930 186 940 q 122 885 134 916 l 90 885 m 210 1346 l 334 1472 l 461 1344 l 336 1219 l 210 1346 m 529 1346 l 654 1472 l 781 1344 l 656 1219 l 529 1346 z "},"":{"ha":1037,"x_min":21,"x_max":1024,"o":"m 21 -44 q 141 103 66 41 q 307 195 216 166 q 378 271 353 241 q 415 333 406 306 q 425 404 425 359 l 425 469 l 375 465 l 375 454 q 368 374 375 403 q 334 300 357 334 q 243 214 298 249 q 124 164 189 180 l 111 197 q 155 236 136 211 q 193 338 186 275 q 196 448 196 368 l 196 454 l 162 452 q 138 448 146 450 q 114 440 121 444 q 84 401 92 427 q 83 371 80 386 l 56 371 q 39 488 21 426 q 117 585 56 549 q 196 612 149 603 l 196 640 q 199 685 196 667 q 216 727 203 708 q 282 787 233 755 l 392 859 l 199 859 q 161 863 175 859 q 130 885 143 869 q 106 932 114 903 q 98 985 100 955 q 112 1091 98 1034 l 142 1090 q 155 1060 144 1074 q 180 1039 165 1047 q 211 1029 192 1031 q 243 1028 222 1028 l 623 1028 q 793 1002 732 1028 q 927 895 873 969 q 1016 611 1006 783 q 983 325 1024 469 q 926 178 963 254 l 578 -13 q 349 64 475 60 q 194 37 270 66 q 60 -44 119 9 l 21 -44 m 375 625 q 412 629 399 627 q 418 630 414 629 q 425 631 422 631 l 425 654 q 441 784 425 738 q 487 859 457 826 l 442 859 q 389 791 403 824 q 375 704 375 760 l 375 625 m 377 211 q 536 209 457 223 l 536 850 q 478 771 496 819 q 464 654 464 732 l 463 546 l 463 404 q 452 320 463 353 q 408 247 439 284 q 377 211 388 222 m 576 200 q 751 115 674 175 q 813 338 793 224 q 829 510 829 432 l 576 382 l 576 200 m 576 427 l 828 554 q 828 562 828 557 q 827 570 827 567 q 816 654 824 616 l 576 533 l 576 427 m 576 577 l 805 693 q 753 788 786 750 q 669 846 718 828 q 576 859 631 859 l 576 577 z "},"":{"ha":997,"x_min":21,"x_max":983,"o":"m 21 68 q 63 184 21 134 q 160 246 100 228 q 232 256 195 256 l 232 484 l 217 484 q 194 484 198 484 q 172 476 180 481 q 155 460 161 469 q 150 437 149 449 q 168 407 151 418 l 161 387 q 94 430 121 398 q 63 504 67 461 q 111 625 57 574 q 182 666 140 654 q 232 673 205 673 l 232 861 q 225 869 228 866 q 196 893 211 885 q 159 898 178 903 q 132 880 142 894 q 117 851 124 869 q 109 825 111 837 l 82 832 q 106 970 67 906 q 191 1041 138 1020 q 301 1045 246 1063 q 372 997 344 1031 q 402 956 384 983 q 427 918 420 928 l 762 359 q 768 586 767 465 q 766 817 770 709 q 684 837 723 820 q 622 878 648 852 l 568 819 l 549 839 l 722 1039 l 749 1038 q 781 1006 764 1019 q 829 983 802 991 q 881 982 857 975 q 922 1007 906 989 q 941 1052 939 1026 l 960 1051 q 975 958 983 1007 q 932 874 967 909 q 864 830 904 845 q 800 817 833 819 l 800 0 l 748 0 l 330 707 l 282 788 q 271 807 273 804 l 271 254 q 274 253 272 254 q 276 253 275 253 q 441 166 370 237 l 488 220 l 508 199 l 329 0 q 257 51 295 36 q 196 58 223 64 q 168 45 180 55 q 148 21 154 35 q 142 -9 142 6 q 151 -39 144 -24 q 187 -72 163 -60 q 235 -81 209 -83 l 229 -107 q 139 -98 184 -115 q 64 -47 94 -82 q 21 68 21 2 m 276 1138 q 320 1198 296 1169 q 396 1263 360 1244 q 492 1284 439 1286 q 587 1264 530 1283 q 663 1242 637 1248 q 741 1240 709 1233 q 779 1257 762 1246 q 808 1292 799 1272 l 844 1275 q 806 1208 828 1236 q 730 1143 774 1166 q 652 1122 694 1124 q 572 1132 614 1120 q 526 1148 556 1137 q 480 1164 496 1160 q 385 1166 428 1179 q 347 1149 365 1160 q 312 1121 329 1138 l 276 1138 z "},"":{"ha":1004,"x_min":11,"x_max":985,"o":"m 22 466 q 95 816 11 656 q 223 981 144 909 q 398 1092 302 1053 l 418 1067 q 265 895 322 998 l 262 890 l 664 1063 q 809 971 743 1030 q 918 838 876 913 q 984 587 983 722 q 926 334 985 457 q 770 116 869 214 q 638 14 706 52 q 479 -38 562 -30 q 288 -1 378 -47 q 140 128 203 43 q 22 466 35 270 m 193 620 q 224 396 189 503 q 226 390 224 394 q 228 383 227 385 l 324 425 l 324 873 l 238 838 q 193 620 197 736 m 241 349 q 340 203 280 260 q 444 134 389 157 q 567 113 504 110 l 568 113 l 568 910 q 507 949 544 928 l 504 948 l 504 459 l 241 349 m 511 1393 l 689 1195 l 701 1204 l 582 1448 l 511 1393 m 608 119 q 705 159 663 131 q 801 267 764 199 q 838 499 856 371 l 608 383 l 608 119 m 608 427 l 830 540 q 802 627 820 585 l 608 529 l 608 427 m 608 573 l 785 663 q 726 756 756 718 q 608 879 674 825 l 608 573 z "},"":{"ha":1004,"x_min":11,"x_max":985,"o":"m 22 466 q 95 816 11 656 q 223 981 144 909 q 398 1092 302 1053 l 418 1067 q 265 895 322 998 l 262 890 l 664 1063 q 809 971 743 1030 q 918 838 876 913 q 984 587 983 722 q 926 334 985 457 q 770 116 869 214 q 638 14 706 52 q 479 -38 562 -30 q 288 -1 378 -47 q 140 128 203 43 q 22 466 35 270 m 193 620 q 224 396 189 503 q 226 390 224 394 q 228 383 227 385 l 324 425 l 324 873 l 238 838 q 193 620 197 736 m 241 349 q 340 203 280 260 q 444 134 389 157 q 567 113 504 110 l 568 113 l 568 910 q 507 949 544 928 l 504 948 l 504 459 l 241 349 m 511 1204 l 629 1448 l 701 1393 l 523 1195 l 511 1204 m 608 119 q 705 159 663 131 q 801 267 764 199 q 838 499 856 371 l 608 383 l 608 119 m 608 427 l 830 540 q 802 627 820 585 l 608 529 l 608 427 m 608 573 l 785 663 q 726 756 756 718 q 608 879 674 825 l 608 573 z "},"":{"ha":1004,"x_min":11,"x_max":985,"o":"m 22 466 q 95 816 11 656 q 223 981 144 909 q 398 1092 302 1053 l 418 1067 q 265 895 322 998 l 262 890 l 664 1063 q 809 971 743 1030 q 918 838 876 913 q 984 587 983 722 q 926 334 985 457 q 770 116 869 214 q 638 14 706 52 q 479 -38 562 -30 q 288 -1 378 -47 q 140 128 203 43 q 22 466 35 270 m 193 620 q 224 396 189 503 q 226 390 224 394 q 228 383 227 385 l 324 425 l 324 873 l 238 838 q 193 620 197 736 m 241 349 q 340 203 280 260 q 444 134 389 157 q 567 113 504 110 l 568 113 l 568 910 q 507 949 544 928 l 504 948 l 504 459 l 241 349 m 317 1198 l 532 1416 l 762 1204 l 770 1198 l 840 1308 l 605 1525 l 603 1527 l 595 1533 l 319 1252 l 317 1198 m 608 119 q 705 159 663 131 q 801 267 764 199 q 838 499 856 371 l 608 383 l 608 119 m 608 427 l 830 540 q 802 627 820 585 l 608 529 l 608 427 m 608 573 l 785 663 q 726 756 756 718 q 608 879 674 825 l 608 573 z "},"":{"ha":1004,"x_min":11,"x_max":985,"o":"m 22 466 q 95 816 11 656 q 223 981 144 909 q 398 1092 302 1053 l 418 1067 q 265 895 322 998 l 262 890 l 664 1063 q 809 971 743 1030 q 918 838 876 913 q 984 587 983 722 q 926 334 985 457 q 770 116 869 214 q 638 14 706 52 q 479 -38 562 -30 q 288 -1 378 -47 q 140 128 203 43 q 22 466 35 270 m 193 620 q 224 396 189 503 q 226 390 224 394 q 228 383 227 385 l 324 425 l 324 873 l 238 838 q 193 620 197 736 m 241 349 q 340 203 280 260 q 444 134 389 157 q 567 113 504 110 l 568 113 l 568 910 q 507 949 544 928 l 504 948 l 504 459 l 241 349 m 304 1211 q 347 1270 324 1242 q 424 1335 387 1315 q 519 1356 467 1358 q 615 1336 557 1355 q 690 1314 667 1319 q 768 1312 736 1305 q 806 1329 790 1318 q 836 1364 826 1343 l 872 1347 q 834 1280 856 1308 q 758 1215 802 1239 q 680 1194 720 1196 q 600 1204 644 1192 q 554 1220 584 1208 q 508 1236 524 1231 q 413 1238 456 1251 q 375 1221 393 1232 q 340 1193 357 1210 l 304 1211 m 608 119 q 705 159 663 131 q 801 267 764 199 q 838 499 856 371 l 608 383 l 608 119 m 608 427 l 830 540 q 802 627 820 585 l 608 529 l 608 427 m 608 573 l 785 663 q 726 756 756 718 q 608 879 674 825 l 608 573 z "},"":{"ha":1004,"x_min":11,"x_max":985,"o":"m 22 466 q 95 816 11 656 q 223 981 144 909 q 398 1092 302 1053 l 418 1067 q 265 895 322 998 l 262 890 l 664 1063 q 809 971 743 1030 q 918 838 876 913 q 984 587 983 722 q 926 334 985 457 q 770 116 869 214 q 638 14 706 52 q 479 -38 562 -30 q 288 -1 378 -47 q 140 128 203 43 q 22 466 35 270 m 193 620 q 224 396 189 503 q 226 390 224 394 q 228 383 227 385 l 324 425 l 324 873 l 238 838 q 193 620 197 736 m 241 349 q 340 203 280 260 q 444 134 389 157 q 567 113 504 110 l 568 113 l 568 910 q 507 949 544 928 l 504 948 l 504 459 l 241 349 m 298 1352 l 423 1477 l 550 1350 l 425 1225 l 298 1352 m 608 119 q 705 159 663 131 q 801 267 764 199 q 838 499 856 371 l 608 383 l 608 119 m 608 427 l 830 540 q 802 627 820 585 l 608 529 l 608 427 m 608 573 l 785 663 q 726 756 756 718 q 608 879 674 825 l 608 573 m 618 1352 l 743 1477 l 869 1350 l 745 1225 l 618 1352 z "},"":{"ha":797,"x_min":96,"x_max":728,"o":"m 96 278 l 310 488 l 104 700 l 304 700 l 413 588 l 528 700 l 728 700 l 511 488 l 715 278 l 514 278 l 408 387 l 296 278 l 96 278 z "},"":{"ha":1004,"x_min":11,"x_max":985,"o":"m 22 466 q 95 816 11 656 q 223 981 144 909 q 398 1092 302 1053 l 418 1067 q 265 895 322 998 l 262 890 l 664 1063 q 804 976 739 1032 l 855 1064 l 890 1044 l 834 948 q 918 838 884 898 q 984 587 983 722 q 926 334 985 457 q 770 116 869 214 q 638 14 706 52 q 479 -38 562 -30 q 292 -3 380 -47 l 245 -83 l 210 -64 l 257 17 q 140 128 192 59 q 22 466 35 270 m 193 620 q 224 396 189 503 q 226 390 224 394 q 228 383 227 385 l 324 425 l 324 873 l 238 838 q 193 620 197 736 m 241 349 q 340 203 281 260 q 349 196 342 201 q 355 190 355 191 l 699 790 q 507 949 617 885 l 504 948 l 504 459 l 241 349 m 387 165 q 444 134 419 144 q 567 113 504 110 q 705 159 643 117 q 801 267 764 199 q 838 499 856 371 l 475 318 l 387 165 m 510 380 l 830 540 q 802 627 820 585 l 593 522 l 592 524 l 510 380 m 625 583 l 785 663 q 726 756 756 718 q 726 757 726 757 l 625 583 z "},"":{"ha":1175,"x_min":21,"x_max":1155,"o":"m 21 865 q 145 1023 81 974 q 197 1053 172 1044 q 257 1059 229 1063 q 307 1044 279 1056 q 328 1035 312 1042 q 354 1024 345 1027 q 404 1011 384 1013 q 455 1019 430 1009 q 515 1056 475 1026 q 523 1061 518 1057 q 529 1067 527 1065 l 562 1034 q 435 920 490 987 q 349 774 380 853 q 310 517 300 652 q 348 359 316 432 l 425 391 l 425 610 l 425 730 q 443 846 425 804 q 513 940 463 891 q 666 1061 562 985 l 695 1062 l 695 935 l 885 1057 l 1005 957 l 1061 1002 l 1086 972 l 1024 923 l 1024 193 l 1092 135 l 1135 172 l 1155 151 l 971 0 l 815 131 l 600 -16 q 430 17 513 -16 q 282 107 347 49 q 175 244 217 165 q 122 408 133 322 q 179 708 101 568 q 387 908 252 840 q 296 899 345 891 q 212 923 281 901 q 126 931 162 939 q 81 908 99 924 q 54 865 61 890 l 21 865 m 364 326 q 498 180 413 234 q 655 130 571 136 l 655 1009 q 618 957 631 987 q 604 851 604 922 l 604 790 l 604 427 l 364 326 m 549 1354 l 728 1156 l 740 1165 l 621 1409 l 549 1354 m 695 130 q 706 131 699 130 q 716 132 713 132 l 831 208 l 831 471 l 695 402 l 695 130 m 695 447 l 831 515 l 831 616 l 695 548 l 695 447 m 695 593 l 831 661 l 831 848 l 754 932 l 695 895 l 695 593 z "},"":{"ha":1175,"x_min":21,"x_max":1155,"o":"m 21 865 q 145 1023 81 974 q 197 1053 172 1044 q 257 1059 229 1063 q 307 1044 279 1056 q 328 1035 312 1042 q 354 1024 345 1027 q 404 1011 384 1013 q 455 1019 430 1009 q 515 1056 475 1026 q 523 1061 518 1057 q 529 1067 527 1065 l 562 1034 q 435 920 490 987 q 349 774 380 853 q 310 517 300 652 q 348 359 316 432 l 425 391 l 425 610 l 425 730 q 443 846 425 804 q 513 940 463 891 q 666 1061 562 985 l 695 1062 l 695 935 l 885 1057 l 1005 957 l 1061 1002 l 1086 972 l 1024 923 l 1024 193 l 1092 135 l 1135 172 l 1155 151 l 971 0 l 815 131 l 600 -16 q 430 17 513 -16 q 282 107 347 49 q 175 244 217 165 q 122 408 133 322 q 179 708 101 568 q 387 908 252 840 q 296 899 345 891 q 212 923 281 901 q 126 931 162 939 q 81 908 99 924 q 54 865 61 890 l 21 865 m 364 326 q 498 180 413 234 q 655 130 571 136 l 655 1009 q 618 957 631 987 q 604 851 604 922 l 604 790 l 604 427 l 364 326 m 549 1165 l 669 1409 l 740 1354 l 562 1156 l 549 1165 m 695 130 q 706 131 699 130 q 716 132 713 132 l 831 208 l 831 471 l 695 402 l 695 130 m 695 447 l 831 515 l 831 616 l 695 548 l 695 447 m 695 593 l 831 661 l 831 848 l 754 932 l 695 895 l 695 593 z "},"":{"ha":1175,"x_min":21,"x_max":1155,"o":"m 21 865 q 145 1023 81 974 q 197 1053 172 1044 q 257 1059 229 1063 q 307 1044 279 1056 q 328 1035 312 1042 q 354 1024 345 1027 q 404 1011 384 1013 q 455 1019 430 1009 q 515 1056 475 1026 q 523 1061 518 1057 q 529 1067 527 1065 l 562 1034 q 435 920 490 987 q 349 774 380 853 q 310 517 300 652 q 348 359 316 432 l 425 391 l 425 610 l 425 730 q 443 846 425 804 q 513 940 463 891 q 666 1061 562 985 l 695 1062 l 695 935 l 885 1057 l 1005 957 l 1061 1002 l 1086 972 l 1024 923 l 1024 193 l 1092 135 l 1135 172 l 1155 151 l 971 0 l 815 131 l 600 -16 q 430 17 513 -16 q 282 107 347 49 q 175 244 217 165 q 122 408 133 322 q 179 708 101 568 q 387 908 252 840 q 296 899 345 891 q 212 923 281 901 q 126 931 162 939 q 81 908 99 924 q 54 865 61 890 l 21 865 m 355 1159 l 571 1377 l 801 1165 l 809 1159 l 879 1269 l 644 1486 l 642 1488 l 634 1493 l 357 1213 l 355 1159 m 364 326 q 498 180 413 234 q 655 130 571 136 l 655 1009 q 618 957 631 987 q 604 851 604 922 l 604 790 l 604 427 l 364 326 m 695 130 q 706 131 699 130 q 716 132 713 132 l 831 208 l 831 471 l 695 402 l 695 130 m 695 447 l 831 515 l 831 616 l 695 548 l 695 447 m 695 593 l 831 661 l 831 848 l 754 932 l 695 895 l 695 593 z "},"":{"ha":1175,"x_min":21,"x_max":1155,"o":"m 21 865 q 145 1023 81 974 q 197 1053 172 1044 q 257 1059 229 1063 q 307 1044 279 1056 q 328 1035 312 1042 q 354 1024 345 1027 q 404 1011 384 1013 q 455 1019 430 1009 q 515 1056 475 1026 q 523 1061 518 1057 q 529 1067 527 1065 l 562 1034 q 435 920 490 987 q 349 774 380 853 q 310 517 300 652 q 348 359 316 432 l 425 391 l 425 610 l 425 730 q 443 846 425 804 q 513 940 463 891 q 666 1061 562 985 l 695 1062 l 695 935 l 885 1057 l 1005 957 l 1061 1002 l 1086 972 l 1024 923 l 1024 193 l 1092 135 l 1135 172 l 1155 151 l 971 0 l 815 131 l 600 -16 q 430 17 513 -16 q 282 107 347 49 q 175 244 217 165 q 122 408 133 322 q 179 708 101 568 q 387 908 252 840 q 296 899 345 891 q 212 923 281 901 q 126 931 162 939 q 81 908 99 924 q 54 865 61 890 l 21 865 m 337 1313 l 462 1438 l 589 1311 l 465 1186 l 337 1313 m 364 326 q 498 180 413 234 q 655 130 571 136 l 655 1009 q 618 957 631 987 q 604 851 604 922 l 604 790 l 604 427 l 364 326 m 656 1313 l 782 1438 l 909 1311 l 784 1186 l 656 1313 m 695 130 q 706 131 699 130 q 716 132 713 132 l 831 208 l 831 471 l 695 402 l 695 130 m 695 447 l 831 515 l 831 616 l 695 548 l 695 447 m 695 593 l 831 661 l 831 848 l 754 932 l 695 895 l 695 593 z "},"":{"ha":949,"x_min":16,"x_max":930,"o":"m 22 438 q 68 559 16 509 q 140 600 98 589 q 199 606 169 608 l 199 836 q 197 872 199 857 q 181 904 193 890 q 159 917 172 913 q 133 917 146 920 q 93 885 108 910 q 80 852 83 869 l 47 852 q 75 941 49 900 q 153 1008 104 985 q 255 1025 201 1031 q 317 1006 290 1021 q 365 963 347 990 q 389 903 382 937 q 394 839 394 879 l 394 101 q 430 92 403 99 q 471 82 456 85 q 478 81 473 81 q 484 79 482 80 l 484 1019 l 524 1019 l 524 879 l 713 1031 l 853 910 l 905 952 l 930 922 l 859 865 l 860 204 q 850 117 860 146 q 799 45 834 72 q 717 14 764 20 q 628 18 682 10 q 517 39 589 24 q 420 60 445 55 q 315 73 360 71 q 212 54 253 76 q 178 26 191 43 q 161 -16 163 6 q 170 -56 159 -38 q 198 -87 180 -75 q 278 -104 228 -107 q 333 -97 304 -103 q 398 -81 361 -91 q 452 -67 435 -71 q 628 -40 549 -45 q 758 -50 705 -34 q 817 -80 791 -60 q 857 -131 843 -101 q 869 -193 871 -162 q 852 -254 867 -225 q 758 -338 822 -310 q 706 -353 736 -347 l 699 -326 q 713 -322 707 -326 q 739 -300 729 -315 q 746 -267 748 -285 q 734 -239 745 -254 q 711 -221 726 -227 q 651 -214 686 -210 q 603 -220 628 -216 q 547 -230 578 -224 q 500 -239 515 -237 q 426 -253 475 -243 q 351 -267 377 -262 q 201 -264 260 -281 q 122 -220 156 -252 q 73 -144 88 -189 q 83 -9 51 -76 q 180 87 114 54 q 199 96 186 91 l 199 418 l 175 418 q 152 418 156 418 q 130 410 138 415 q 113 394 119 404 q 108 372 106 383 q 126 341 109 353 l 119 321 q 52 364 79 332 q 22 438 26 396 m 383 1116 l 502 1359 l 573 1304 l 395 1106 l 383 1116 m 524 75 q 576 83 554 75 q 623 114 604 93 q 653 162 642 134 q 666 275 666 198 l 666 397 q 586 424 631 426 q 524 401 553 422 l 524 75 m 524 442 q 587 463 553 462 q 666 437 631 465 l 666 570 q 587 544 631 542 q 524 566 553 545 l 524 442 m 524 606 q 586 584 552 586 q 666 610 631 582 l 666 825 l 591 883 l 524 830 l 524 606 z "},"":{"ha":937,"x_min":21,"x_max":918,"o":"m 21 47 q 218 235 88 168 l 218 467 l 194 467 q 149 467 163 469 q 127 461 138 466 q 109 448 117 457 q 95 410 95 433 l 95 405 l 63 405 q 57 482 50 442 q 87 549 64 521 q 146 593 111 578 q 218 606 179 608 l 218 836 q 215 872 218 857 q 199 904 212 890 q 177 917 190 913 q 151 917 164 920 q 111 885 126 910 q 99 852 102 870 l 66 852 q 94 941 70 902 q 170 1013 123 990 q 273 1025 221 1038 q 361 967 326 1011 q 403 871 390 929 q 410 816 408 846 q 413 768 413 786 q 413 710 413 749 q 412 659 412 670 l 412 633 l 460 668 l 460 1023 l 499 1023 l 499 696 l 746 876 q 841 798 800 838 q 918 707 880 759 l 918 265 l 553 68 q 499 109 525 94 l 499 -115 l 499 -155 l 412 -155 l 218 -155 l 218 147 q 53 47 118 118 l 21 47 m 412 -115 l 460 -115 l 460 130 q 412 147 441 139 l 412 -115 m 412 288 q 460 288 428 289 l 460 625 l 412 592 l 412 288 m 499 283 q 710 198 617 267 l 741 216 l 741 449 l 499 328 l 499 283 m 499 372 l 741 494 l 741 595 l 499 473 l 499 372 m 499 517 l 724 631 q 673 682 698 660 q 610 732 641 710 l 499 654 l 499 517 z "},"":{"ha":761,"x_min":21,"x_max":736,"o":"m 21 119 l 114 180 l 114 547 q 113 567 114 561 q 104 586 111 578 q 79 607 95 600 q 47 613 64 614 l 47 633 l 114 704 l 114 882 l 424 1058 l 610 943 l 438 846 l 287 942 l 287 860 l 287 586 l 287 547 l 346 602 l 532 468 l 379 326 q 464 276 426 309 q 524 199 502 243 q 542 5 572 105 q 458 -121 520 -69 q 319 -181 398 -173 l 321 -214 q 548 -169 442 -229 q 703 3 654 -109 q 732 130 728 63 q 716 258 736 196 q 656 372 697 319 q 561 460 616 425 l 689 575 l 451 737 l 287 586 l 287 547 l 287 166 l 366 100 l 412 125 l 432 98 l 241 0 l 94 126 l 41 93 l 21 119 z "},"":{"ha":673,"x_min":17,"x_max":654,"o":"m 21 184 q 45 258 23 222 q 96 317 62 286 q 187 379 136 353 q 167 389 180 382 q 86 454 111 415 q 68 506 70 479 q 77 555 66 531 q 109 596 88 578 q 155 625 123 610 l 308 705 l 513 573 l 569 618 l 593 589 l 521 530 l 521 180 l 587 113 l 648 153 l 654 126 l 460 -7 l 355 100 l 208 -7 q 60 73 115 5 q 21 184 17 124 m 108 519 q 129 467 109 491 q 195 418 150 440 q 273 389 225 404 q 348 369 305 379 l 348 499 l 175 606 q 146 589 158 599 q 118 558 128 576 q 108 519 108 540 m 190 311 q 212 189 180 250 q 248 141 228 159 q 301 115 272 119 q 348 117 326 111 l 348 328 q 307 341 334 332 q 266 353 279 349 q 212 370 229 364 q 190 311 195 344 m 260 977 l 439 779 l 451 787 l 332 1031 l 260 977 z "},"":{"ha":673,"x_min":17,"x_max":654,"o":"m 21 184 q 45 258 23 222 q 96 317 62 286 q 187 379 136 353 q 167 389 180 382 q 86 454 111 415 q 68 506 70 479 q 77 555 66 531 q 109 596 88 578 q 155 625 123 610 l 308 705 l 513 573 l 569 618 l 593 589 l 521 530 l 521 180 l 587 113 l 648 153 l 654 126 l 460 -7 l 355 100 l 208 -7 q 60 73 115 5 q 21 184 17 124 m 108 519 q 129 467 109 491 q 195 418 150 440 q 273 389 225 404 q 348 369 305 379 l 348 499 l 175 606 q 146 589 158 599 q 118 558 128 576 q 108 519 108 540 m 190 311 q 212 189 180 250 q 248 141 228 159 q 301 115 272 119 q 348 117 326 111 l 348 328 q 307 341 334 332 q 266 353 279 349 q 212 370 229 364 q 190 311 195 344 m 260 787 l 380 1031 l 451 977 l 273 779 l 260 787 z "},"":{"ha":673,"x_min":17,"x_max":654,"o":"m 21 184 q 45 258 23 222 q 96 317 62 286 q 187 379 136 353 q 167 389 180 382 q 86 454 111 415 q 68 506 70 479 q 77 555 66 531 q 109 596 88 578 q 155 625 123 610 l 308 705 l 513 573 l 569 618 l 593 589 l 521 530 l 521 180 l 587 113 l 648 153 l 654 126 l 460 -7 l 355 100 l 208 -7 q 60 73 115 5 q 21 184 17 124 m 67 781 l 282 999 l 512 787 l 520 781 l 590 891 l 355 1108 l 353 1109 l 345 1116 l 68 835 l 67 781 m 108 519 q 129 467 109 491 q 195 418 150 440 q 273 389 225 404 q 348 369 305 379 l 348 499 l 175 606 q 146 589 158 599 q 118 558 128 576 q 108 519 108 540 m 190 311 q 212 189 180 250 q 248 141 228 159 q 301 115 272 119 q 348 117 326 111 l 348 328 q 307 341 334 332 q 266 353 279 349 q 212 370 229 364 q 190 311 195 344 z "},"":{"ha":673,"x_min":17,"x_max":654,"o":"m 21 184 q 45 258 23 222 q 96 317 62 286 q 187 379 136 353 q 167 389 180 382 q 86 454 111 415 q 68 506 70 479 q 77 555 66 531 q 109 596 88 578 q 155 625 123 610 l 308 705 l 513 573 l 569 618 l 593 589 l 521 530 l 521 180 l 587 113 l 648 153 l 654 126 l 460 -7 l 355 100 l 208 -7 q 60 73 115 5 q 21 184 17 124 m 54 793 q 98 854 74 825 q 174 919 137 899 q 269 940 218 942 q 365 920 307 939 q 441 898 415 903 q 518 896 486 888 q 557 913 541 901 q 587 947 577 928 l 622 930 q 584 864 606 892 q 507 799 552 823 q 429 777 470 779 q 350 787 391 775 q 304 803 334 791 q 258 819 273 814 q 163 822 205 834 q 125 805 142 816 q 90 777 106 793 l 54 793 m 108 519 q 129 467 109 491 q 195 418 150 440 q 273 389 225 404 q 348 369 305 379 l 348 499 l 175 606 q 146 589 158 599 q 118 558 128 576 q 108 519 108 540 m 190 311 q 212 189 180 250 q 248 141 228 159 q 301 115 272 119 q 348 117 326 111 l 348 328 q 307 341 334 332 q 266 353 279 349 q 212 370 229 364 q 190 311 195 344 z "},"":{"ha":673,"x_min":17,"x_max":654,"o":"m 21 184 q 45 258 23 222 q 96 317 62 286 q 187 379 136 353 q 167 389 180 382 q 86 454 111 415 q 68 506 70 479 q 77 555 66 531 q 109 596 88 578 q 155 625 123 610 l 308 705 l 513 573 l 569 618 l 593 589 l 521 530 l 521 180 l 587 113 l 648 153 l 654 126 l 460 -7 l 355 100 l 208 -7 q 60 73 115 5 q 21 184 17 124 m 48 935 l 174 1060 l 300 933 l 176 808 l 48 935 m 108 519 q 129 467 109 491 q 195 418 150 440 q 273 389 225 404 q 348 369 305 379 l 348 499 l 175 606 q 146 589 158 599 q 118 558 128 576 q 108 519 108 540 m 190 311 q 212 189 180 250 q 248 141 228 159 q 301 115 272 119 q 348 117 326 111 l 348 328 q 307 341 334 332 q 266 353 279 349 q 212 370 229 364 q 190 311 195 344 m 368 935 l 493 1060 l 620 933 l 495 808 l 368 935 z "},"":{"ha":673,"x_min":17,"x_max":654,"o":"m 21 184 q 45 258 23 222 q 96 317 62 286 q 187 379 136 353 q 167 389 180 382 q 86 454 111 415 q 68 506 70 479 q 77 555 66 531 q 109 596 88 578 q 155 625 123 610 l 260 680 q 199 728 222 694 q 175 803 175 762 q 213 895 175 857 q 306 933 252 933 q 398 895 359 933 q 436 803 436 857 q 411 727 436 761 q 348 680 387 693 l 513 573 l 569 618 l 593 589 l 521 530 l 521 180 l 587 113 l 648 153 l 654 126 l 460 -7 l 355 100 l 208 -7 q 60 73 115 5 q 21 184 17 124 m 108 519 q 129 467 109 491 q 195 418 150 440 q 273 389 225 404 q 348 369 305 379 l 348 499 l 175 606 q 146 589 158 599 q 118 558 128 576 q 108 519 108 540 m 190 311 q 212 189 180 250 q 248 141 228 159 q 301 115 272 119 q 348 117 326 111 l 348 328 q 307 341 334 332 q 266 353 279 349 q 212 370 229 364 q 190 311 195 344 m 214 803 q 241 738 214 765 q 306 711 269 711 q 370 738 343 711 q 397 803 397 765 q 370 867 397 841 q 306 894 343 894 q 241 867 268 894 q 214 803 214 840 z "},"":{"ha":875,"x_min":17,"x_max":863,"o":"m 21 184 q 45 258 23 222 q 96 317 62 286 q 189 380 138 354 q 178 385 184 381 q 170 389 172 388 q 89 454 114 415 q 71 506 73 477 q 80 555 69 532 q 111 596 91 578 q 157 625 127 610 l 311 705 l 471 602 l 684 712 l 823 499 l 823 492 l 524 306 l 524 246 l 690 133 l 843 253 l 863 220 l 576 -14 l 382 131 l 208 -7 q 60 73 115 5 q 21 184 17 124 m 111 519 q 132 467 111 491 q 198 418 153 440 q 276 389 227 404 q 351 369 311 378 l 351 499 l 178 606 q 149 589 161 599 q 121 558 132 576 q 111 519 111 538 m 190 311 q 212 189 180 248 q 246 146 227 163 q 296 127 270 127 q 351 155 331 127 l 351 329 q 310 341 337 333 q 269 353 282 349 q 212 371 228 365 q 190 311 195 345 m 524 340 l 670 433 l 550 606 l 524 591 l 524 568 l 524 340 z "},"":{"ha":475,"x_min":21,"x_max":455,"o":"m 21 143 l 212 13 l 239 26 q 264 13 254 19 l 454 180 l 436 203 l 356 146 q 268 171 309 147 q 199 241 222 198 l 199 603 l 323 500 l 455 600 l 308 718 l 21 558 l 21 143 m 90 -45 l 212 13 l 231 0 l 250 0 l 264 13 q 315 -29 296 -5 q 342 -107 345 -66 q 317 -172 340 -140 q 261 -225 296 -199 q 132 -302 210 -264 l 123 -292 q 179 -256 155 -279 q 212 -208 203 -234 q 196 -109 231 -156 q 90 -45 160 -62 z "},"":{"ha":619,"x_min":21,"x_max":599,"o":"m 21 120 l 87 173 l 87 539 l 419 712 l 559 499 l 559 492 l 260 306 l 260 246 l 426 133 l 579 253 l 599 220 l 313 -14 l 106 140 l 45 90 l 21 120 m 260 340 l 406 433 l 286 606 l 260 591 l 260 340 m 262 999 l 440 800 l 452 810 l 334 1054 l 262 999 z "},"":{"ha":619,"x_min":21,"x_max":599,"o":"m 21 120 l 87 173 l 87 539 l 419 712 l 559 499 l 559 492 l 260 306 l 260 246 l 426 133 l 579 253 l 599 220 l 313 -14 l 106 140 l 45 90 l 21 120 m 260 340 l 406 433 l 286 606 l 260 591 l 260 340 m 262 810 l 381 1054 l 452 999 l 274 800 l 262 810 z "},"":{"ha":619,"x_min":21,"x_max":599,"o":"m 21 120 l 87 173 l 87 539 l 419 712 l 559 499 l 559 492 l 260 306 l 260 246 l 426 133 l 579 253 l 599 220 l 313 -14 l 106 140 l 45 90 l 21 120 m 68 804 l 283 1021 l 513 809 l 522 804 l 591 913 l 356 1131 l 355 1132 l 347 1138 l 70 857 l 68 804 m 260 340 l 406 433 l 286 606 l 260 591 l 260 340 z "},"":{"ha":619,"x_min":21,"x_max":621,"o":"m 21 120 l 87 173 l 87 539 l 419 712 l 559 499 l 559 492 l 260 306 l 260 246 l 426 133 l 579 253 l 599 220 l 313 -14 l 106 140 l 45 90 l 21 120 m 50 958 l 175 1082 l 302 956 l 177 831 l 50 958 m 260 340 l 406 433 l 286 606 l 260 591 l 260 340 m 370 958 l 494 1082 l 621 956 l 496 831 l 370 958 z "},"":{"ha":473,"x_min":21,"x_max":454,"o":"m 21 585 l 208 712 l 314 585 l 314 166 l 360 119 l 420 159 l 454 133 l 254 -7 l 121 113 l 74 79 l 54 106 l 140 166 l 140 532 l 94 592 l 41 559 l 21 585 m 116 982 l 294 784 l 307 793 l 187 1037 l 116 982 z "},"":{"ha":473,"x_min":21,"x_max":454,"o":"m 21 585 l 208 712 l 314 585 l 314 166 l 360 119 l 420 159 l 454 133 l 254 -7 l 121 113 l 74 79 l 54 106 l 140 166 l 140 532 l 94 592 l 41 559 l 21 585 m 116 793 l 235 1037 l 307 982 l 128 784 l 116 793 z "},"":{"ha":473,"x_min":-77,"x_max":454,"o":"m -77 787 l 138 1005 l 368 793 l 376 787 l 446 897 l 210 1114 l 209 1116 l 201 1121 l -76 841 l -77 787 m 21 585 l 208 712 l 314 585 l 314 166 l 360 119 l 420 159 l 454 133 l 254 -7 l 121 113 l 74 79 l 54 106 l 140 166 l 140 532 l 94 592 l 41 559 l 21 585 z "},"":{"ha":473,"x_min":-96,"x_max":475,"o":"m -96 941 l 29 1066 l 156 939 l 31 814 l -96 941 m 21 585 l 208 712 l 314 585 l 314 166 l 360 119 l 420 159 l 454 133 l 254 -7 l 121 113 l 74 79 l 54 106 l 140 166 l 140 532 l 94 592 l 41 559 l 21 585 m 223 941 l 349 1066 l 475 939 l 351 814 l 223 941 z "},"":{"ha":605,"x_min":21,"x_max":586,"o":"m 21 139 l 21 566 l 190 670 l 134 721 l 83 661 l 55 688 l 105 747 l 59 789 l 31 784 l 31 1033 l 212 873 l 260 931 l 288 903 l 241 848 l 510 612 l 562 653 l 586 623 l 526 575 l 526 181 l 221 1 l 21 139 m 200 212 l 347 109 l 347 527 l 200 661 l 200 212 z "},"":{"ha":806,"x_min":21,"x_max":787,"o":"m 21 575 l 214 708 l 321 589 l 473 708 l 631 573 l 690 621 l 714 590 l 647 536 l 647 173 l 707 119 l 760 159 l 787 119 l 580 -20 l 440 106 l 487 153 l 487 495 l 387 582 l 327 534 l 327 153 l 387 100 l 254 -20 l 94 106 l 147 153 l 147 522 l 94 582 l 41 549 l 21 575 m 149 805 q 192 865 169 837 q 269 930 231 909 q 363 951 312 953 q 460 930 402 949 q 535 909 511 913 q 613 907 581 899 q 651 924 635 912 q 681 959 671 938 l 717 941 q 678 875 701 905 q 602 810 646 833 q 524 788 564 790 q 444 799 488 786 q 398 814 429 803 q 353 830 368 825 q 258 833 300 845 q 219 816 236 827 q 184 787 201 804 l 149 805 z "},"":{"ha":625,"x_min":21,"x_max":604,"o":"m 21 124 l 92 182 l 92 539 l 405 719 l 604 566 l 604 186 l 298 0 q 201 71 266 24 q 103 141 136 117 l 45 94 l 21 124 m 272 213 l 431 106 l 431 506 l 272 612 l 272 213 m 277 982 l 456 784 l 467 793 l 349 1037 l 277 982 z "},"":{"ha":625,"x_min":21,"x_max":604,"o":"m 21 124 l 92 182 l 92 539 l 405 719 l 604 566 l 604 186 l 298 0 q 201 71 266 24 q 103 141 136 117 l 45 94 l 21 124 m 272 213 l 431 106 l 431 506 l 272 612 l 272 213 m 277 793 l 396 1037 l 467 982 l 290 784 l 277 793 z "},"":{"ha":625,"x_min":21,"x_max":607,"o":"m 21 124 l 92 182 l 92 539 l 405 719 l 604 566 l 604 186 l 298 0 q 201 71 266 24 q 103 141 136 117 l 45 94 l 21 124 m 83 787 l 299 1005 l 529 793 l 536 787 l 607 897 l 372 1114 l 370 1116 l 362 1121 l 85 841 l 83 787 m 272 213 l 431 106 l 431 506 l 272 612 l 272 213 z "},"":{"ha":625,"x_min":21,"x_max":639,"o":"m 21 124 l 92 182 l 92 539 l 405 719 l 604 566 l 604 186 l 298 0 q 201 71 266 24 q 103 141 136 117 l 45 94 l 21 124 m 71 799 q 114 859 93 834 q 191 924 153 904 q 286 945 234 947 q 382 925 324 944 q 457 903 433 908 q 535 901 503 894 q 573 918 557 907 q 603 954 593 932 l 639 936 q 600 869 623 899 q 524 804 568 827 q 446 783 487 785 q 366 793 410 781 q 320 809 351 798 q 275 825 290 820 q 180 827 222 840 q 141 810 158 821 q 106 782 125 800 l 71 799 m 272 213 l 431 106 l 431 506 l 272 612 l 272 213 z "},"":{"ha":625,"x_min":21,"x_max":636,"o":"m 21 124 l 92 182 l 92 539 l 405 719 l 604 566 l 604 186 l 298 0 q 201 71 266 24 q 103 141 136 117 l 45 94 l 21 124 m 65 941 l 190 1066 l 317 939 l 192 814 l 65 941 m 272 213 l 431 106 l 431 506 l 272 612 l 272 213 m 385 941 l 509 1066 l 636 939 l 511 814 l 385 941 z "},"":{"ha":970,"x_min":47,"x_max":929,"o":"m 47 445 l 217 635 l 877 635 l 909 668 l 929 648 l 759 458 l 100 458 l 67 425 l 47 445 m 372 273 l 497 397 l 625 271 l 500 146 l 372 273 m 372 836 l 497 960 l 625 833 l 500 709 l 372 836 z "},"":{"ha":625,"x_min":21,"x_max":629,"o":"m 21 124 l 92 182 l 92 539 l 405 719 l 496 649 l 594 820 l 629 800 l 528 625 l 604 566 l 604 186 l 298 0 q 207 66 268 22 l 104 -114 l 69 -94 l 174 89 q 103 141 151 106 l 45 94 l 21 124 m 272 258 l 419 514 l 272 612 l 272 258 m 286 203 l 431 106 l 431 456 l 286 203 z "},"":{"ha":758,"x_min":21,"x_max":738,"o":"m 21 591 l 200 707 q 239 686 220 699 q 284 640 267 666 q 305 591 299 617 q 310 540 310 572 l 310 205 l 397 123 l 463 172 q 463 184 463 176 q 463 197 463 193 l 463 239 l 463 524 l 391 588 l 521 708 l 614 629 l 663 662 l 682 635 l 623 589 l 623 257 l 623 199 q 634 135 623 157 q 661 104 644 115 l 712 146 l 738 112 l 571 -3 q 511 26 537 1 q 469 105 479 55 q 465 132 466 118 l 290 -5 l 100 153 l 144 189 l 144 515 q 142 545 144 535 q 131 572 138 561 q 109 590 123 583 q 79 593 95 596 q 67 589 75 592 q 35 571 50 583 l 21 591 m 328 999 l 505 800 l 517 810 l 399 1054 l 328 999 z "},"":{"ha":758,"x_min":21,"x_max":738,"o":"m 21 591 l 200 707 q 239 686 220 699 q 284 640 267 666 q 305 591 299 617 q 310 540 310 572 l 310 205 l 397 123 l 463 172 q 463 184 463 176 q 463 197 463 193 l 463 239 l 463 524 l 391 588 l 521 708 l 614 629 l 663 662 l 682 635 l 623 589 l 623 257 l 623 199 q 634 135 623 157 q 661 104 644 115 l 712 146 l 738 112 l 571 -3 q 511 26 537 1 q 469 105 479 55 q 465 132 466 118 l 290 -5 l 100 153 l 144 189 l 144 515 q 142 545 144 535 q 131 572 138 561 q 109 590 123 583 q 79 593 95 596 q 67 589 75 592 q 35 571 50 583 l 21 591 m 328 810 l 446 1054 l 517 999 l 339 800 l 328 810 z "},"":{"ha":758,"x_min":21,"x_max":738,"o":"m 21 591 l 200 707 q 239 686 220 699 q 284 640 267 666 q 305 591 299 617 q 310 540 310 572 l 310 205 l 397 123 l 463 172 q 463 184 463 176 q 463 197 463 193 l 463 239 l 463 524 l 391 588 l 521 708 l 614 629 l 663 662 l 682 635 l 623 589 l 623 257 l 623 199 q 634 135 623 157 q 661 104 644 115 l 712 146 l 738 112 l 571 -3 q 511 26 537 1 q 469 105 479 55 q 465 132 466 118 l 290 -5 l 100 153 l 144 189 l 144 515 q 142 545 144 535 q 131 572 138 561 q 109 590 123 583 q 79 593 95 596 q 67 589 75 592 q 35 571 50 583 l 21 591 m 134 804 l 349 1021 l 579 809 l 587 804 l 656 913 l 421 1131 l 420 1132 l 412 1138 l 135 857 l 134 804 z "},"":{"ha":758,"x_min":21,"x_max":738,"o":"m 21 591 l 200 707 q 239 686 220 699 q 284 640 267 666 q 305 591 299 617 q 310 540 310 572 l 310 205 l 397 123 l 463 172 q 463 184 463 176 q 463 197 463 193 l 463 239 l 463 524 l 391 588 l 521 708 l 614 629 l 663 662 l 682 635 l 623 589 l 623 257 l 623 199 q 634 135 623 157 q 661 104 644 115 l 712 146 l 738 112 l 571 -3 q 511 26 537 1 q 469 105 479 55 q 465 132 466 118 l 290 -5 l 100 153 l 144 189 l 144 515 q 142 545 144 535 q 131 572 138 561 q 109 590 123 583 q 79 593 95 596 q 67 589 75 592 q 35 571 50 583 l 21 591 m 115 958 l 240 1082 l 367 956 l 242 831 l 115 958 m 435 958 l 559 1082 l 686 956 l 562 831 l 435 958 z "},"":{"ha":719,"x_min":21,"x_max":703,"o":"m 21 582 l 41 555 l 96 589 l 147 529 l 147 140 l 347 0 l 477 90 q 478 89 477 90 q 478 87 478 87 q 492 33 482 57 q 504 6 495 26 q 517 -25 513 -14 q 524 -56 524 -43 q 519 -86 526 -71 q 501 -109 512 -101 q 473 -120 490 -118 q 391 -64 439 -84 q 294 -47 343 -45 q 164 -92 223 -49 q 81 -200 105 -134 l 101 -214 q 168 -183 130 -191 q 241 -182 205 -175 q 348 -255 309 -197 l 604 -74 q 640 -52 623 -61 q 675 -28 665 -37 q 697 8 690 -15 q 697 49 703 28 q 680 86 696 56 q 663 138 667 113 q 660 193 660 161 l 660 559 l 534 709 l 399 618 l 474 529 l 475 142 l 475 125 l 314 226 l 314 582 l 208 708 l 21 582 m 333 804 l 452 1048 l 523 993 l 345 795 l 333 804 z "},"":{"ha":679,"x_min":21,"x_max":659,"o":"m 21 878 l 189 991 q 248 940 222 969 q 283 887 270 913 l 283 584 l 458 715 l 593 596 l 635 631 l 659 601 l 608 558 l 608 172 q 482 93 540 134 q 377 11 429 56 q 283 58 329 39 l 283 -5 q 285 -37 283 -22 q 294 -66 287 -54 q 315 -90 301 -79 q 347 -102 328 -99 l 347 -122 l 149 -241 l 122 -241 l 122 109 q 50 121 83 117 l 122 181 l 122 775 q 119 818 122 804 q 100 855 115 841 q 68 869 85 869 q 36 856 50 869 l 21 878 m 283 162 l 297 156 q 435 96 376 123 l 435 509 l 344 584 l 283 538 l 283 162 z "},"":{"ha":719,"x_min":21,"x_max":703,"o":"m 21 582 l 41 555 l 96 589 l 147 529 l 147 140 l 347 0 l 477 90 q 478 89 477 90 q 478 87 478 87 q 492 33 482 57 q 504 6 495 26 q 517 -25 513 -14 q 524 -56 524 -43 q 519 -86 526 -71 q 501 -109 512 -101 q 473 -120 490 -118 q 391 -64 439 -84 q 294 -47 343 -45 q 164 -92 223 -49 q 81 -200 105 -134 l 101 -214 q 168 -183 130 -191 q 241 -182 205 -175 q 348 -255 309 -197 l 604 -74 q 640 -52 623 -61 q 675 -28 665 -37 q 697 8 690 -15 q 697 49 703 28 q 680 86 696 56 q 663 138 667 113 q 660 193 660 161 l 660 559 l 534 709 l 399 618 l 474 529 l 475 142 l 475 125 l 314 226 l 314 582 l 208 708 l 21 582 m 121 952 l 245 1077 l 372 950 l 248 825 l 121 952 m 440 952 l 565 1077 l 692 950 l 567 825 l 440 952 z "},"":{"ha":1782,"x_min":11,"x_max":1767,"o":"m 22 466 q 95 816 11 656 q 223 981 144 909 q 398 1092 302 1053 l 418 1067 q 265 895 322 998 l 262 890 l 664 1063 q 809 971 743 1030 q 918 838 876 913 q 949 771 935 808 q 977 811 956 783 q 1096 928 1027 879 q 1246 1004 1166 978 l 1260 984 q 1110 844 1168 937 l 1477 1068 q 1619 985 1541 1021 q 1712 949 1664 965 l 1756 985 l 1767 972 l 1603 800 q 1453 870 1526 830 q 1443 876 1450 872 q 1433 882 1436 880 l 1433 639 l 1756 639 l 1587 463 l 1433 463 l 1433 135 q 1596 197 1520 146 q 1720 334 1673 248 l 1747 334 q 1710 191 1744 261 q 1569 37 1662 93 q 1369 -24 1478 -20 q 1174 13 1270 -28 q 1008 129 1078 54 q 905 293 943 199 q 770 116 853 198 q 638 14 706 52 q 479 -38 562 -30 q 288 -1 378 -47 q 140 128 203 43 q 22 466 35 270 m 193 620 q 224 396 189 503 q 226 390 224 394 q 228 383 227 385 l 324 425 l 324 873 l 238 838 q 193 620 197 736 m 241 349 q 340 203 280 260 q 444 134 389 157 q 567 113 504 110 l 568 113 l 568 910 q 507 949 544 928 l 504 948 l 504 459 l 241 349 m 608 119 q 705 159 663 131 q 801 267 764 199 q 838 499 856 371 l 608 383 l 608 119 m 608 427 l 830 540 q 802 627 820 585 l 608 529 l 608 427 m 608 573 l 785 663 q 726 756 756 718 q 608 879 674 825 l 608 573 m 1040 610 q 1051 422 1031 511 q 1076 346 1059 387 l 1152 378 l 1152 823 l 1077 777 q 1040 610 1048 705 m 1091 312 q 1131 252 1112 274 q 1261 156 1184 186 q 1393 132 1324 131 l 1393 905 q 1341 939 1365 923 l 1331 932 l 1331 413 l 1091 312 z "},"":{"ha":965,"x_min":21,"x_max":946,"o":"m 21 124 l 92 182 l 92 539 l 405 719 l 556 603 l 766 712 l 907 499 l 907 492 l 607 306 l 607 246 l 773 133 l 926 253 l 946 220 l 660 -14 l 488 115 l 298 0 q 201 71 266 24 q 103 141 136 117 l 45 94 l 21 124 m 272 213 l 431 106 l 431 506 l 272 612 l 272 213 m 607 340 l 753 433 l 633 606 l 607 591 l 607 340 z "},"":{"ha":949,"x_min":16,"x_max":930,"o":"m 22 438 q 68 559 16 509 q 140 600 98 589 q 199 606 169 608 l 199 836 q 197 872 199 857 q 181 904 193 890 q 159 917 172 913 q 133 917 146 920 q 93 885 108 910 q 80 852 83 869 l 47 852 q 75 941 49 900 q 153 1008 104 985 q 255 1025 201 1031 q 317 1006 290 1021 q 365 963 347 990 q 389 903 382 937 q 394 839 394 879 l 394 101 q 430 92 403 99 q 471 82 456 85 q 478 81 473 81 q 484 79 482 80 l 484 1019 l 524 1019 l 524 879 l 713 1031 l 853 910 l 905 952 l 930 922 l 859 865 l 860 204 q 850 117 860 146 q 799 45 834 72 q 717 14 764 20 q 628 18 682 10 q 517 39 589 24 q 420 60 445 55 q 315 73 360 71 q 212 54 253 76 q 178 26 191 43 q 161 -16 163 6 q 170 -56 159 -38 q 198 -87 180 -75 q 278 -104 228 -107 q 333 -97 304 -103 q 398 -81 361 -91 q 452 -67 435 -71 q 628 -40 549 -45 q 758 -50 705 -34 q 817 -80 791 -60 q 857 -131 843 -101 q 869 -193 871 -162 q 852 -254 867 -225 q 758 -338 822 -310 q 706 -353 736 -347 l 699 -326 q 713 -322 707 -326 q 739 -300 729 -315 q 746 -267 748 -285 q 734 -239 745 -254 q 711 -221 726 -227 q 651 -214 686 -210 q 603 -220 628 -216 q 547 -230 578 -224 q 500 -239 515 -237 q 426 -253 475 -243 q 351 -267 377 -262 q 201 -264 260 -281 q 122 -220 156 -252 q 73 -144 88 -189 q 83 -9 51 -76 q 180 87 114 54 q 199 96 186 91 l 199 418 l 175 418 q 152 418 156 418 q 130 410 138 415 q 113 394 119 404 q 108 372 106 383 q 126 341 109 353 l 119 321 q 52 364 79 332 q 22 438 26 396 m 171 1263 l 296 1388 l 422 1261 l 298 1137 l 171 1263 m 490 1263 l 615 1388 l 742 1261 l 617 1137 l 490 1263 m 524 75 q 576 83 554 75 q 623 114 604 93 q 653 162 642 134 q 666 275 666 198 l 666 397 q 586 424 631 426 q 524 401 553 422 l 524 75 m 524 442 q 587 463 553 462 q 666 437 631 465 l 666 570 q 587 544 631 542 q 524 566 553 545 l 524 442 m 524 606 q 586 584 552 586 q 666 610 631 582 l 666 825 l 591 883 l 524 830 l 524 606 z "},"":{"ha":766,"x_min":0,"x_max":0,"o":""},"":{"ha":1533,"x_min":0,"x_max":0,"o":""},"":{"ha":766,"x_min":0,"x_max":0,"o":""},"":{"ha":1533,"x_min":0,"x_max":0,"o":""},"":{"ha":511,"x_min":0,"x_max":0,"o":""},"":{"ha":383,"x_min":0,"x_max":0,"o":""},"":{"ha":255,"x_min":0,"x_max":0,"o":""},"":{"ha":255,"x_min":0,"x_max":0,"o":""},"":{"ha":191,"x_min":0,"x_max":0,"o":""},"":{"ha":307,"x_min":0,"x_max":0,"o":""},"":{"ha":85,"x_min":0,"x_max":0,"o":""},"":{"ha":686,"x_min":21,"x_max":667,"o":"m 21 445 l 191 635 l 614 635 l 646 668 l 667 648 l 496 458 l 75 458 l 41 425 l 21 445 z "},"":{"ha":686,"x_min":21,"x_max":667,"o":"m 21 445 l 191 635 l 614 635 l 646 668 l 667 648 l 496 458 l 75 458 l 41 425 l 21 445 z "},"":{"ha":686,"x_min":21,"x_max":667,"o":"m 21 445 l 191 635 l 614 635 l 646 668 l 667 648 l 496 458 l 75 458 l 41 425 l 21 445 z "},"":{"ha":734,"x_min":21,"x_max":715,"o":"m 21 445 l 203 635 l 659 635 l 694 668 l 715 648 l 532 458 l 79 458 l 42 425 l 21 445 z "},"":{"ha":1429,"x_min":21,"x_max":1410,"o":"m 21 445 l 386 635 l 1297 635 l 1366 668 l 1410 648 l 1044 458 l 136 458 l 63 425 l 21 445 z "},"":{"ha":332,"x_min":37,"x_max":330,"o":"m 39 869 q 64 780 41 822 q 120 705 86 740 q 250 600 172 652 l 258 614 q 201 662 225 631 q 169 729 178 692 q 174 843 155 786 q 201 894 184 873 q 250 924 222 920 q 273 922 261 926 q 294 911 277 922 l 312 899 l 330 928 l 142 1052 q 67 977 95 1023 q 39 869 37 926 z "},"":{"ha":332,"x_min":21,"x_max":314,"o":"m 21 928 l 209 1052 q 284 977 257 1022 q 312 869 314 926 q 286 780 310 823 q 231 705 264 740 q 102 600 178 650 l 92 614 q 149 662 125 631 q 182 729 173 692 q 177 843 195 787 q 150 894 167 873 q 102 924 129 920 q 78 922 90 926 q 56 911 73 921 l 39 899 l 21 928 z "},"":{"ha":707,"x_min":19,"x_max":687,"o":"m 21 869 q 47 780 23 823 q 102 705 68 740 q 231 600 155 650 l 241 614 q 183 662 208 631 q 151 729 159 692 q 156 843 137 786 q 183 894 166 873 q 231 924 204 920 q 255 922 243 926 q 276 911 258 922 l 294 899 l 312 928 l 124 1052 q 49 977 76 1022 q 21 869 19 926 m 396 869 q 421 780 398 822 q 477 705 442 742 q 606 600 530 650 l 616 614 q 558 662 583 631 q 526 729 534 692 q 531 843 512 786 q 558 894 541 873 q 606 924 579 920 q 630 922 618 926 q 651 911 633 922 l 669 899 l 687 928 l 498 1052 q 424 977 452 1023 q 396 869 394 926 z "},"":{"ha":707,"x_min":21,"x_max":689,"o":"m 21 928 l 209 1052 q 284 977 257 1022 q 312 869 314 926 q 286 780 310 823 q 231 705 264 740 q 102 600 178 650 l 92 614 q 149 662 125 631 q 182 729 173 692 q 177 843 195 787 q 150 894 167 873 q 102 924 129 920 q 78 922 90 926 q 56 911 73 921 l 39 899 l 21 928 m 396 928 l 584 1052 q 659 977 632 1022 q 687 869 689 926 q 661 780 685 823 q 606 705 640 740 q 476 600 553 652 l 467 614 q 524 662 500 631 q 557 729 548 692 q 552 843 570 787 q 525 894 542 873 q 476 924 504 920 q 453 922 465 926 q 431 911 448 921 l 414 899 l 396 928 z "},"":{"ha":1209,"x_min":21,"x_max":1190,"o":"m 21 112 l 146 237 l 273 110 l 148 -15 l 21 112 m 479 112 l 604 237 l 731 110 l 606 -15 l 479 112 m 937 112 l 1062 237 l 1190 110 l 1064 -15 l 937 112 z "},"":{"ha":307,"x_min":0,"x_max":0,"o":""},"":{"ha":383,"x_min":0,"x_max":0,"o":""},"":{"ha":722,"x_min":0,"x_max":722,"o":"m 0 0 l 0 722 l 722 722 l 722 0 l 0 0 z "},"":{"ha":806,"x_min":21,"x_max":787,"o":"m 21 119 l 114 180 l 114 547 q 113 567 114 560 q 104 586 111 578 q 79 607 95 600 q 47 613 64 614 l 47 633 l 114 704 l 114 883 l 424 1058 l 660 916 l 488 819 l 287 942 l 287 860 l 287 700 l 521 700 l 647 699 l 647 166 l 694 119 l 753 159 l 787 133 l 587 -7 l 454 113 l 241 0 l 94 126 l 41 93 l 21 119 m 287 166 l 366 100 l 474 166 l 474 533 q 472 568 474 557 q 458 600 469 585 q 431 622 448 616 l 425 624 l 287 624 l 287 166 z "},"":{"ha":814,"x_min":21,"x_max":794,"o":"m 21 119 l 114 180 l 114 547 q 113 567 114 561 q 104 586 111 578 q 79 607 95 600 q 47 613 64 614 l 47 633 l 114 704 l 114 883 l 424 1058 l 551 979 l 654 1059 l 681 1059 l 681 166 l 734 113 l 774 146 l 794 119 l 621 0 l 475 126 l 431 99 l 432 98 l 425 95 l 421 93 l 241 0 l 94 126 l 41 93 l 21 119 m 287 166 l 366 100 l 402 120 l 494 180 l 494 624 l 287 624 l 287 166 m 287 700 l 494 700 l 494 773 q 493 793 494 787 q 485 812 491 804 q 460 833 477 823 q 435 849 437 847 l 287 942 l 287 860 l 287 700 z "},"":{"ha":1154,"x_min":21,"x_max":1134,"o":"m 21 119 l 114 180 l 114 547 q 113 567 114 560 q 104 586 111 578 q 79 607 95 600 q 47 613 64 614 l 47 633 l 114 704 l 114 883 l 424 1058 l 597 966 l 772 1064 l 1008 922 l 836 826 l 635 948 l 635 700 l 868 700 l 994 699 l 994 166 l 1041 119 l 1101 159 l 1134 133 l 935 -7 l 801 113 l 581 0 l 434 102 l 241 0 l 94 126 l 41 93 l 21 119 m 287 166 l 366 100 l 454 155 l 454 547 q 458 624 454 591 l 287 624 l 287 166 m 287 700 l 462 700 l 462 850 l 287 942 l 287 860 l 287 700 m 634 166 l 706 100 l 821 166 l 821 533 q 819 568 821 557 q 806 600 817 585 q 778 622 795 616 l 772 624 l 635 624 l 635 173 l 634 173 l 634 166 z "},"":{"ha":1154,"x_min":21,"x_max":1135,"o":"m 21 119 l 114 180 l 114 547 q 113 567 114 560 q 104 586 111 578 q 79 607 95 600 q 47 613 64 614 l 47 633 l 114 704 l 114 883 l 424 1058 l 618 955 l 783 1057 l 892 989 l 995 1059 l 1021 1059 l 1021 166 l 1074 113 l 1114 146 l 1135 119 l 962 0 l 815 126 l 772 99 l 772 98 l 765 95 l 762 93 l 581 0 l 434 102 l 241 0 l 94 126 l 41 93 l 21 119 m 287 166 l 366 100 l 454 155 l 454 547 l 454 624 l 400 624 l 343 624 l 287 624 l 287 166 m 287 700 l 355 700 l 454 700 l 454 855 l 287 942 l 287 860 l 287 700 m 627 165 l 706 100 l 743 120 l 835 180 l 835 624 l 627 624 l 627 166 l 627 165 m 627 700 l 835 700 l 835 794 q 833 814 835 808 q 825 833 831 825 q 800 854 819 844 q 763 878 774 869 l 665 939 l 627 914 l 627 832 l 627 700 z "}}}
